<?xml version="1.0" standalone="no"?>
<!DOCTYPE svg PUBLIC "-//W3C//DTD SVG 20010904//EN"
 "http://www.w3.org/TR/2001/REC-SVG-20010904/DTD/svg10.dtd">
<svg version="1.0" xmlns="http://www.w3.org/2000/svg"
 width="502.000000pt" height="497.000000pt" viewBox="0 0 502.000000 497.000000"
 preserveAspectRatio="xMidYMid meet">

<g transform="translate(0.000000,497.000000) scale(0.100000,-0.100000)"
fill="#000000" stroke="none">
<path d="M2445 4914 c-151 -135 -338 -198 -581 -196 -231 2 -362 45 -512 165
l-81 66 -52 -57 c-29 -31 -171 -178 -316 -326 -144 -148 -263 -274 -263 -280
0 -6 26 -40 57 -76 160 -183 247 -398 275 -678 22 -228 -21 -427 -190 -862
-31 -78 -46 -95 -57 -61 -3 11 -31 42 -61 70 -97 89 -213 113 -317 67 -65 -28
-105 -75 -143 -164 -15 -37 -48 -110 -72 -162 -24 -52 -57 -124 -73 -160 -16
-36 -36 -77 -44 -92 -41 -73 7 -172 108 -221 l57 -28 0 -74 c0 -75 25 -206 56
-286 111 -298 371 -567 713 -738 92 -46 248 -114 301 -131 14 -5 77 -27 140
-50 63 -23 169 -61 235 -84 338 -120 536 -207 672 -295 92 -59 135 -106 155
-170 7 -23 23 -52 35 -63 22 -20 24 -20 42 -4 10 10 29 43 41 75 43 116 180
205 530 345 80 32 159 64 175 71 17 7 41 16 55 20 14 3 34 10 45 15 37 16 160
60 225 80 36 12 74 25 85 30 11 5 40 16 65 24 71 23 237 95 330 144 198 104
340 213 479 367 171 189 281 444 281 650 l0 74 58 28 c43 21 65 40 90 78 41
64 41 95 -3 184 -19 39 -35 72 -35 75 0 2 -22 50 -49 107 -89 191 -111 240
-111 250 0 5 -19 29 -43 53 -116 115 -305 94 -421 -47 -20 -24 -36 -49 -36
-56 0 -65 -104 179 -176 414 -49 160 -66 245 -71 367 -15 332 78 615 275 843
l61 69 -47 51 c-25 27 -170 177 -322 331 l-275 282 -64 -59 c-78 -72 -195
-132 -301 -155 -114 -24 -342 -22 -445 5 -102 27 -260 104 -348 170 -37 28
-71 51 -75 51 -4 -1 -29 -21 -57 -46z m170 -204 c334 -200 751 -199 1047 1 63
43 71 45 90 25 142 -145 434 -450 436 -455 1 -4 -17 -36 -40 -71 -93 -143
-180 -357 -214 -522 -21 -107 -29 -336 -15 -443 18 -136 97 -407 151 -515 25
-50 96 -253 115 -328 8 -34 20 -98 26 -143 9 -74 8 -87 -17 -167 -52 -171
-124 -295 -236 -403 -136 -131 -338 -228 -338 -162 0 8 -4 12 -9 8 -5 -3 -12
-1 -16 4 -7 12 40 4 67 -10 22 -12 21 -12 36 17 10 20 6 25 -48 58 -32 20 -62
35 -67 34 -4 -1 -51 20 -103 47 -73 37 -111 65 -162 118 -38 39 -68 78 -68 88
0 29 42 24 97 -11 26 -17 56 -28 68 -26 45 9 65 19 70 36 8 26 41 31 64 9 11
-11 29 -19 40 -19 16 0 19 -5 15 -25 -2 -14 0 -25 6 -25 11 0 45 -26 69 -53
19 -22 80 -61 86 -55 2 2 14 41 27 87 l22 83 -25 19 c-47 36 -147 79 -243 104
l-96 26 -67 -27 c-62 -24 -71 -25 -118 -14 -61 15 -94 11 -109 -12 -8 -13 -6
-22 11 -40 25 -27 68 -116 60 -124 -7 -7 -83 89 -104 130 -8 17 -29 45 -45 62
-27 28 -55 104 -39 104 3 0 13 -17 22 -38 l17 -37 0 58 c0 58 13 87 38 87 24
0 9 44 -17 51 -13 4 -21 7 -16 8 4 1 -4 19 -18 41 -16 25 -25 54 -25 80 0 22
-4 40 -9 40 -16 0 -20 29 -7 54 l12 25 29 -25 c24 -21 75 -34 75 -19 0 2 -22
16 -49 29 -56 29 -69 59 -39 96 10 12 18 29 18 37 0 7 9 32 21 55 15 29 19 51
15 77 -4 23 -3 29 3 16 7 -16 9 -13 15 20 4 22 19 58 34 79 26 37 27 45 26
155 -1 64 -7 136 -14 161 -6 25 -15 63 -19 85 -15 73 -63 151 -98 160 -13 3
-29 18 -38 34 -23 45 -40 58 -102 77 -32 9 -65 22 -73 29 -46 34 -139 46 -190
25 -16 -7 -44 -10 -62 -7 -18 3 -52 9 -75 12 -32 6 -49 3 -67 -9 -14 -9 -36
-16 -50 -16 -42 0 -100 -38 -118 -79 -10 -21 -18 -41 -18 -45 0 -14 -45 -45
-75 -52 -41 -9 -65 -32 -65 -64 0 -16 -11 -37 -30 -55 -34 -33 -37 -49 -14
-95 14 -26 15 -37 5 -52 -20 -33 -4 -106 30 -130 18 -13 29 -31 29 -45 0 -13
7 -26 15 -29 8 -4 15 -12 15 -18 0 -7 6 -18 12 -24 7 -7 13 -18 13 -25 1 -7 5
-24 9 -38 5 -16 1 -48 -10 -85 -10 -34 -17 -97 -18 -149 l-1 -90 -75 -28 c-41
-16 -87 -33 -102 -39 -14 -5 -47 -30 -72 -54 -26 -24 -51 -44 -57 -44 -17 0
-89 -60 -89 -74 0 -23 -65 -74 -117 -91 -75 -24 -137 -59 -141 -79 -3 -15 11
-31 67 -72 12 -10 -8 -23 -109 -73 -177 -87 -165 -72 -134 -170 26 -80 37 -95
48 -66 3 8 12 15 20 15 21 0 30 19 16 35 -10 12 -1 25 44 69 31 29 56 58 56
63 0 5 27 17 60 27 32 10 64 24 71 32 15 19 33 18 25 -1 -4 -12 -1 -12 21 2
14 10 24 13 22 8 -19 -42 -33 -65 -41 -65 -4 0 -8 -7 -8 -16 0 -11 18 1 53 35
28 28 59 51 67 51 35 0 -20 29 -112 59 -95 32 -130 54 -112 70 5 5 36 17 69
27 54 16 71 29 165 124 97 98 228 200 257 200 7 0 34 10 59 23 31 14 48 18 51
11 2 -7 24 -37 48 -68 49 -64 50 -86 2 -107 -36 -16 -53 -69 -22 -69 29 0 10
-23 -38 -48 -26 -12 -59 -38 -74 -57 -16 -19 -32 -35 -38 -35 -6 0 -10 -31
-11 -70 0 -39 3 -70 7 -70 11 0 56 79 64 111 9 38 145 163 160 147 3 -3 -12
-29 -33 -59 -21 -30 -45 -70 -52 -89 -17 -42 -64 -122 -100 -170 -30 -39 -46
-75 -29 -65 5 4 22 4 37 0 l27 -8 -25 -6 c-14 -4 -31 -19 -38 -34 -12 -24 -11
-32 3 -53 16 -25 16 -25 -5 -14 -13 7 -25 21 -27 31 -11 41 -39 9 -49 -58 -3
-21 -30 -81 -60 -133 -60 -103 -64 -110 -85 -155 -16 -31 -41 -35 -82 -14 -16
9 -16 12 -2 32 17 25 20 47 5 47 -5 0 -10 -5 -10 -10 0 -6 -8 -19 -18 -30 -15
-16 -23 -17 -55 -9 -69 17 -102 27 -147 42 -25 8 -72 23 -105 32 -151 42 -348
174 -442 296 -59 76 -118 197 -155 313 -27 87 -30 109 -25 175 8 103 91 374
151 489 19 38 92 259 118 362 26 100 36 378 18 499 -31 217 -111 429 -228 604
l-45 67 119 123 c66 67 168 173 228 235 60 61 114 112 118 112 5 0 36 -18 68
-40 32 -22 61 -40 64 -40 2 0 33 -13 68 -29 35 -16 86 -36 113 -44 163 -51
420 -48 570 6 92 34 204 87 265 126 36 22 70 41 75 41 6 0 56 -27 110 -60z
m-205 -1375 c0 -8 -4 -15 -9 -15 -13 0 -22 16 -14 24 11 11 23 6 23 -9z m-60
-70 c0 -8 6 -12 14 -9 8 3 21 -5 30 -17 15 -22 16 -22 29 -5 13 17 19 18 61 7
37 -9 61 -9 107 0 33 6 62 16 65 20 3 5 30 9 60 9 53 0 54 -1 48 -25 -4 -15
-2 -25 5 -25 17 0 13 -26 -11 -78 -15 -33 -21 -64 -20 -105 1 -54 -1 -59 -26
-68 -15 -6 -48 -8 -73 -6 -26 3 -56 3 -68 0 -27 -7 -77 -107 -96 -191 -12 -50
-12 -59 2 -74 9 -10 12 -25 8 -38 -6 -18 -4 -20 19 -14 22 5 26 3 26 -16 0
-19 -4 -21 -25 -16 -18 5 -27 1 -35 -14 -6 -11 -17 -20 -26 -20 -11 0 -10 -6
7 -30 12 -16 26 -27 31 -24 5 3 15 0 23 -6 12 -10 15 -10 15 0 0 6 9 23 20 37
29 38 26 79 -9 109 -34 28 -32 56 5 92 15 14 24 34 24 52 0 17 5 30 10 30 6 0
10 -4 10 -10 0 -5 7 -7 15 -4 8 3 31 0 51 -6 30 -10 38 -10 45 1 7 11 9 11 9
1 0 -7 -7 -15 -15 -18 -15 -6 -12 -24 4 -24 4 0 21 11 37 25 42 36 72 33 90
-10 13 -33 13 -38 -10 -83 -13 -26 -28 -65 -31 -86 -4 -21 -17 -47 -29 -57
-17 -17 -21 -32 -21 -82 0 -67 -15 -82 -38 -37 -17 34 -54 51 -83 38 -15 -7
-32 -7 -53 0 -16 6 -38 8 -48 6 -10 -3 -43 -6 -73 -7 -31 -1 -54 -6 -52 -12 2
-5 13 -9 25 -7 19 2 72 -8 126 -24 21 -7 -7 -34 -35 -34 -26 0 -43 -18 -22
-24 45 -12 118 -21 134 -16 17 6 17 7 0 17 -10 6 -16 18 -14 29 8 41 88 -1 88
-46 0 -20 -34 -46 -73 -55 -13 -4 -30 -17 -37 -31 -12 -21 -20 -24 -69 -24
-62 1 -80 10 -103 55 -75 145 -131 317 -135 420 -4 71 9 113 25 87 5 -7 13
-12 18 -11 5 1 17 -1 27 -5 9 -5 25 -5 35 -1 17 8 27 11 50 13 9 2 12 17 11
50 -3 61 -23 76 -114 82 l-70 5 0 85 c0 47 4 102 8 122 13 61 97 151 97 103z
m375 -355 c3 -5 -1 -10 -9 -10 -8 0 -18 5 -21 10 -3 6 1 10 9 10 8 0 18 -4 21
-10z m-427 -22 c-20 -29 -38 -34 -38 -10 0 24 8 32 33 32 18 0 18 -2 5 -22z
m388 -3 c17 -13 15 -14 -31 -14 -46 0 -48 1 -31 14 11 8 25 15 31 15 6 0 20
-7 31 -15z m-321 -14 c17 -7 14 -9 -15 -13 -38 -6 -53 -2 -45 13 7 11 32 11
60 0z m724 -5 c-2 -1 -19 -8 -38 -14 -29 -10 -32 -10 -21 3 7 8 24 15 38 15
14 0 23 -2 21 -4z m-184 -126 c14 -43 -52 -126 -79 -99 -8 7 20 75 34 84 6 4
8 11 5 16 -9 14 4 29 20 23 8 -3 17 -14 20 -24z m-2362 -84 c98 -43 134 -117
148 -301 11 -150 27 -247 57 -340 21 -65 95 -212 128 -251 18 -23 34 -46 34
-51 0 -12 83 -91 165 -157 63 -51 274 -166 304 -166 6 0 19 -4 29 -9 9 -5 33
-13 52 -18 19 -6 55 -16 80 -23 60 -17 237 -79 295 -104 166 -72 242 -107 310
-145 87 -48 224 -137 240 -155 6 -6 30 -27 54 -45 50 -40 95 -45 120 -14 21
27 115 95 171 126 110 59 167 92 195 112 39 28 163 86 245 115 35 12 47 17
110 43 19 9 64 25 100 36 65 21 85 27 170 51 25 6 53 16 62 21 10 5 23 9 28 9
11 0 106 41 144 62 10 5 35 19 55 30 146 81 287 229 367 385 82 158 101 235
127 503 9 88 20 149 33 175 69 147 261 183 334 63 11 -19 20 -51 20 -74 0 -41
-24 -114 -37 -114 -3 0 -34 27 -69 60 -34 33 -69 60 -76 60 -23 0 -66 -52 -82
-98 -11 -31 -13 -50 -5 -74 5 -18 14 -49 20 -68 11 -36 25 -72 40 -102 5 -10
9 -23 9 -29 0 -7 11 -27 25 -45 14 -18 25 -35 25 -38 0 -28 131 -156 159 -156
25 0 28 -109 5 -208 -22 -98 -36 -146 -46 -156 -4 -6 -8 -16 -8 -24 0 -28 -97
-187 -166 -270 -67 -83 -175 -180 -260 -236 -22 -14 -50 -34 -64 -45 -14 -11
-30 -21 -37 -21 -6 0 -13 -3 -15 -8 -5 -12 -215 -115 -308 -151 -47 -18 -98
-39 -115 -46 -16 -7 -55 -20 -85 -30 -30 -10 -84 -28 -120 -41 -36 -12 -94
-32 -130 -44 -36 -12 -75 -26 -87 -31 -13 -5 -33 -13 -45 -18 -125 -49 -164
-65 -172 -73 -6 -4 -16 -8 -23 -8 -13 0 -29 -7 -173 -72 -111 -51 -271 -151
-323 -202 l-49 -49 -32 36 c-57 66 -251 181 -436 260 -180 77 -472 186 -650
243 -41 13 -84 28 -95 33 -11 5 -36 14 -55 21 -78 27 -231 96 -293 132 -26 15
-50 28 -52 28 -3 0 -42 26 -87 57 -221 152 -342 282 -433 463 -21 41 -41 83
-46 92 -20 40 -59 234 -59 294 0 59 2 65 25 74 29 11 137 117 156 153 8 14 27
52 42 84 16 32 33 66 38 75 5 10 9 26 9 36 0 10 3 22 7 26 4 4 12 27 19 52 17
66 -14 151 -64 173 -29 14 -44 6 -107 -58 -27 -28 -53 -51 -58 -51 -15 0 -37
68 -37 113 0 80 68 145 152 147 21 0 62 -11 91 -24z m2507 -33 c0 -28 -15 -44
-33 -37 -20 7 -23 40 -4 47 24 10 37 7 37 -10z m-246 -30 c-5 -5 -12 -12 -16
-18 -4 -6 -8 -2 -8 8 0 9 7 17 17 17 9 0 12 -3 7 -7z m-2558 -228 c23 -35 103
-85 136 -85 36 0 43 -17 23 -61 -85 -188 -192 -251 -283 -167 -26 25 -29 70
-8 114 8 16 21 45 29 64 48 110 73 160 79 160 4 0 15 -11 24 -25z m4575 -5 c3
-14 27 -69 53 -123 52 -111 57 -154 24 -183 -96 -84 -197 -25 -283 165 -20 44
-13 61 24 61 35 0 122 56 136 88 13 29 36 25 46 -8z m-2467 -6 c9 -8 16 -21
16 -27 1 -17 42 -63 63 -70 10 -4 25 -21 35 -38 9 -18 27 -43 39 -58 20 -23
22 -24 23 -7 0 11 -8 28 -17 38 -12 14 -14 21 -5 30 8 8 20 1 47 -28 20 -21
41 -38 46 -37 5 2 11 -8 14 -20 5 -19 11 -23 36 -19 22 3 29 0 29 -12 0 -9 -7
-16 -15 -16 -8 0 -15 -4 -15 -10 0 -5 7 -7 15 -3 9 3 22 -2 30 -13 13 -18 14
-17 15 14 0 18 5 43 11 54 11 21 12 21 25 3 8 -10 14 -36 14 -57 0 -21 5 -38
10 -38 6 0 10 -13 10 -29 0 -16 6 -31 15 -35 10 -4 15 -20 15 -53 l0 -48 -22
32 c-13 18 -29 33 -36 33 -7 0 -15 6 -18 14 -3 8 -14 16 -25 19 -15 4 -19 2
-15 -8 3 -9 -4 -15 -21 -17 -49 -6 -36 -25 22 -33 36 -4 55 -11 52 -18 -7 -23
-146 -8 -202 21 l-50 26 30 5 29 6 -29 19 c-15 10 -60 28 -100 41 -94 29 -172
95 -112 95 14 0 32 12 45 30 26 34 23 36 -24 14 -19 -9 -36 -15 -38 -13 -2 2
0 42 5 89 6 47 9 97 9 113 0 31 20 36 44 11z m511 -3 c-3 -6 -19 -18 -36 -26
-40 -21 -38 0 3 25 33 20 45 20 33 1z m-115 -26 c0 -8 -117 -60 -153 -69 -19
-4 -26 -3 -22 4 3 5 12 10 19 10 7 0 30 14 51 30 25 20 49 30 71 30 19 0 34
-2 34 -5z m157 -157 c-7 -64 -25 -128 -36 -128 -4 0 -6 14 -3 30 2 17 8 30 13
30 4 0 11 27 15 60 4 33 9 60 12 60 2 0 2 -24 -1 -52z m-775 -70 c-7 -7 -12
-8 -12 -2 0 6 3 14 7 17 3 4 9 5 12 2 2 -3 -1 -11 -7 -17z m189 -114 c6 -8 17
-14 23 -14 6 0 39 -23 73 -50 38 -31 109 -71 181 -104 131 -59 130 -59 220
-111 35 -21 65 -35 68 -32 3 3 -2 19 -10 36 -17 33 -9 46 23 36 15 -5 29 6 60
47 22 30 50 76 62 102 14 32 24 44 29 36 9 -15 -6 -75 -28 -109 -29 -44 -95
-111 -109 -111 -8 0 -13 -11 -12 -27 0 -16 3 -22 6 -15 10 24 23 11 23 -22 0
-28 -4 -35 -22 -39 -22 -3 -22 -4 -3 -11 76 -28 113 -84 114 -172 1 -87 -51
-108 -122 -48 -16 13 -25 24 -21 24 4 0 0 6 -10 13 -11 8 -19 32 -23 70 -5 49
-3 61 14 80 28 30 36 62 21 74 -7 5 -47 18 -88 28 -41 9 -84 24 -96 31 -11 8
-58 28 -103 44 -46 17 -109 48 -141 70 -33 22 -63 40 -67 40 -5 0 -30 18 -57
40 -33 27 -55 39 -67 35 -16 -5 -18 -2 -13 23 4 17 1 32 -5 36 -6 4 -11 18
-11 31 l0 25 39 -21 c22 -11 45 -27 52 -35z m528 -16 c-11 -41 -12 -38 6 -38
9 0 15 -9 15 -25 0 -18 -5 -25 -18 -25 -26 0 -34 11 -21 27 7 8 8 13 1 13 -7
0 -7 13 0 40 6 22 14 40 19 40 4 0 3 -15 -2 -32z m-377 -197 c4 -4 -1 -7 -11
-8 -11 -1 -26 5 -33 14 -11 14 -10 15 12 8 14 -4 28 -10 32 -14z m-372 -8 c0
-15 2 -16 10 -3 5 8 10 11 10 7 0 -5 -8 -20 -19 -33 -15 -19 -21 -21 -29 -11
-14 17 -4 57 14 57 8 0 14 -8 14 -17z m35 -43 c-3 -5 -11 -10 -16 -10 -6 0 -7
5 -4 10 3 6 11 10 16 10 6 0 7 -4 4 -10z m290 -10 c3 -5 17 -10 31 -10 43 0
25 -18 -22 -22 -49 -4 -81 15 -53 33 19 12 36 11 44 -1z m859 -36 c16 -6 22
-39 9 -47 -5 -3 -38 -8 -74 -11 l-67 -7 -16 32 c-9 18 -16 34 -16 36 0 6 148
3 164 -3z m217 -24 c10 -6 19 -16 19 -22 0 -6 7 -19 16 -29 9 -10 14 -21 13
-26 -2 -4 -24 13 -48 40 -42 45 -42 59 0 37z m-1417 -26 c10 -9 14 -24 10 -39
-3 -12 -1 -26 5 -29 6 -4 11 -22 11 -41 0 -19 5 -37 11 -40 6 -4 9 -26 8 -50
-2 -28 2 -48 13 -58 9 -9 20 -42 26 -74 6 -32 13 -65 16 -73 3 -8 2 -21 -3
-29 -16 -26 -58 11 -66 59 -4 22 -11 40 -17 40 -6 0 -8 -13 -4 -35 7 -33 6
-34 -16 -26 -33 12 -47 48 -64 164 -15 98 -14 104 5 147 19 44 24 43 34 -5 3
-11 5 8 6 43 0 34 3 62 5 62 3 0 12 -7 20 -16z m172 -14 c20 0 56 -38 52 -57
-2 -12 -8 -11 -30 7 l-28 21 0 -50 c0 -51 -8 -62 -28 -38 -17 20 -18 102 -1
120 8 8 16 11 17 6 2 -5 10 -9 18 -9z m1317 -55 c-3 -9 -8 -14 -10 -11 -3 3
-2 9 2 15 9 16 15 13 8 -4z m-316 -27 c-3 -8 -6 -5 -6 6 -1 11 2 17 5 13 3 -3
4 -12 1 -19z m-977 -63 c0 -8 -7 -15 -15 -15 -9 0 -12 6 -9 15 4 8 10 15 15
15 5 0 9 -7 9 -15z m910 -5 c0 -5 -5 -10 -11 -10 -5 0 -7 5 -4 10 3 6 8 10 11
10 2 0 4 -4 4 -10z m-932 -32 c17 -17 15 -68 -5 -90 -22 -24 -69 -24 -83 1
-16 31 -12 79 8 90 23 14 65 14 80 -1z m1052 8 c0 -2 -8 -10 -17 -17 -16 -13
-17 -12 -4 4 13 16 21 21 21 13z m-40 -26 c0 -5 -2 -10 -4 -10 -3 0 -8 5 -11
10 -3 6 -1 10 4 10 6 0 11 -4 11 -10z m-932 -293 c9 -10 4 -12 -23 -9 -19 2
-32 8 -29 13 8 13 40 11 52 -4z"/>
<path d="M2287 4469 c-25 -14 -42 -52 -66 -146 -27 -105 -28 -143 -2 -143 10
0 30 9 44 20 l26 20 6 -20 c7 -23 26 -25 58 -9 16 9 22 9 25 0 2 -6 10 -11 19
-11 22 0 74 40 67 51 -4 6 -11 5 -20 -2 -24 -20 -25 -6 -5 70 l19 72 -31 -6
c-18 -4 -40 -9 -49 -11 -21 -6 -78 -70 -78 -88 0 -14 -48 -51 -56 -43 -5 5 32
172 46 204 6 15 19 23 42 25 18 2 33 8 33 13 0 14 -56 17 -78 4z m111 -176
c-15 -56 -26 -73 -48 -73 -14 0 -20 7 -20 23 0 33 37 87 59 87 18 0 18 -4 9
-37z"/>
<path d="M3050 4419 c-12 -16 -20 -33 -17 -36 7 -6 77 46 77 58 0 21 -40 6
-60 -22z"/>
<path d="M3327 4443 c-14 -13 -6 -33 12 -33 19 0 35 23 24 34 -8 8 -28 8 -36
-1z"/>
<path d="M1386 4430 c-59 -18 -95 -84 -75 -136 14 -38 32 -19 24 27 -6 33 -3
42 19 64 37 37 59 34 51 -7 -20 -96 -46 -167 -65 -173 -47 -15 -13 -25 83 -25
91 0 106 3 122 20 19 21 14 54 -8 48 -6 -3 -13 -14 -15 -25 -3 -20 -8 -21 -60
-16 -31 3 -58 7 -59 8 -2 1 4 23 13 48 14 41 19 47 44 47 16 0 30 -6 33 -12 6
-17 13 -9 21 25 4 16 2 27 -4 27 -5 0 -10 -4 -10 -10 0 -5 -14 -10 -31 -10
-30 0 -31 2 -25 31 3 17 6 35 6 40 0 5 20 9 45 9 34 0 45 -4 45 -16 0 -23 17
-8 22 21 5 25 5 25 -71 24 -42 0 -89 -5 -105 -9z"/>
<path d="M2762 4419 c-65 -33 -100 -116 -72 -170 12 -21 40 -26 40 -7 0 6 -7
19 -16 29 -37 41 25 129 100 143 64 12 100 -29 58 -67 -31 -28 -45 -21 -38 18
6 32 5 35 -18 35 -26 0 -43 -15 -27 -25 6 -3 6 -16 1 -33 -5 -15 -16 -53 -25
-84 -9 -36 -21 -58 -30 -58 -7 0 -17 -4 -20 -10 -4 -6 21 -10 69 -10 66 0 78
3 105 26 35 30 42 76 14 106 -9 10 -12 18 -6 18 18 0 34 49 23 70 -24 45 -90
52 -158 19z m106 -131 c30 -30 -6 -88 -54 -88 -21 0 -25 3 -19 18 4 9 11 32
17 50 9 34 34 42 56 20z"/>
<path d="M1632 4354 c-28 -19 -28 -56 -1 -94 12 -16 19 -36 16 -44 -9 -23 -38
-20 -44 4 -8 29 -33 25 -33 -5 0 -50 96 -44 114 7 9 26 7 32 -39 94 -14 20 2
29 30 16 21 -10 27 -9 32 4 12 32 -38 44 -75 18z"/>
<path d="M1778 4354 c-51 -27 -87 -131 -56 -162 7 -7 21 -12 33 -12 27 0 88
38 80 50 -4 6 -16 3 -30 -6 -48 -31 -69 4 -44 75 6 17 16 31 22 32 26 3 63 -3
73 -12 6 -5 15 -4 22 3 20 20 23 3 7 -48 -28 -92 -17 -111 45 -79 27 14 30 14
30 0 0 -22 34 -19 55 5 10 11 21 20 25 20 4 0 10 -9 13 -20 7 -26 40 -26 83 1
35 21 47 47 17 34 -71 -30 -88 -1 -24 40 22 13 44 32 49 42 14 24 -3 53 -29
53 -31 0 -86 -60 -94 -102 -5 -25 -13 -38 -28 -42 -12 -3 -23 -3 -26 -1 -2 3
3 32 12 65 21 73 21 70 -1 70 -13 0 -23 -16 -37 -62 -18 -55 -45 -91 -59 -77
-3 2 2 33 11 67 20 79 9 97 -37 64 -36 -27 -36 -27 -43 -2 -6 24 -31 25 -69 4z
m366 -23 c3 -4 -6 -19 -19 -31 -26 -24 -33 -14 -15 21 11 20 25 25 34 10z"/>
<path d="M3055 4358 c-66 -14 -115 -75 -115 -141 0 -41 22 -54 55 -33 19 12
23 12 31 -2 10 -14 14 -14 47 6 20 12 37 17 37 11 0 -18 48 -29 77 -18 48 18
57 58 23 102 -17 22 -27 57 -17 57 2 0 18 -7 36 -16 17 -9 39 -13 48 -10 12 5
14 1 9 -21 -15 -68 -18 -93 -12 -109 5 -14 10 -14 42 5 l36 21 17 -21 c16 -20
21 -21 53 -10 38 13 65 37 54 48 -3 4 -12 1 -18 -5 -7 -7 -22 -12 -35 -12 -19
0 -23 5 -23 29 0 15 5 42 11 60 10 29 15 31 48 29 27 -2 36 1 36 12 0 22 -56
24 -81 2 -23 -20 -54 -73 -54 -94 0 -7 -11 -18 -25 -25 -31 -14 -32 -2 -10 71
8 27 15 53 15 58 0 13 -34 9 -57 -7 -18 -13 -22 -13 -33 0 -27 32 -100 6 -100
-36 0 -8 11 -31 25 -52 14 -20 23 -42 20 -47 -9 -15 -42 -12 -49 5 -7 18 -47
20 -64 3 -17 -17 -16 3 3 77 9 32 14 61 13 65 -2 3 -21 2 -43 -2z m-5 -42 c0
-44 -37 -106 -63 -106 -15 0 0 80 19 101 20 22 44 25 44 5z"/>
<path d="M3610 4358 c-63 -18 -110 -78 -110 -141 0 -41 22 -54 55 -33 19 12
23 12 31 -1 9 -14 13 -14 41 1 18 9 35 21 38 27 11 17 -3 23 -20 9 -13 -10
-15 -9 -15 7 0 11 7 42 15 69 17 55 19 74 8 73 -5 0 -24 -5 -43 -11z m0 -40
c0 -51 -34 -108 -64 -108 -15 0 -4 70 15 94 21 27 49 35 49 14z"/>
<path d="M2225 4024 c-53 -19 -85 -56 -85 -98 0 -39 24 -66 42 -48 9 9 8 18
-2 37 -12 23 -11 28 10 50 47 50 53 38 45 -107 -9 -150 -17 -183 -43 -175 -59
19 -62 19 -68 3 -18 -47 56 -61 105 -21 40 34 48 67 56 219 4 71 9 135 12 142
7 18 -20 17 -72 -2z"/>
<path d="M2873 3967 c-21 -20 -34 -39 -30 -43 9 -10 117 42 117 56 0 5 -4 10
-9 10 -5 0 -16 3 -24 6 -10 3 -31 -8 -54 -29z"/>
<path d="M2405 3948 c-34 -26 -55 -75 -55 -126 0 -70 49 -98 107 -63 63 39 90
120 59 179 -14 26 -23 32 -50 32 -19 0 -45 -9 -61 -22z m61 -30 c4 -6 7 -31 7
-55 0 -54 -32 -95 -57 -73 -19 15 -21 92 -4 120 14 22 43 26 54 8z"/>
<path d="M2642 3950 c-12 -5 -27 -21 -34 -35 -9 -21 -8 -33 12 -74 24 -52 21
-71 -10 -71 -12 0 -20 8 -22 23 -4 26 -26 29 -41 5 -18 -27 17 -58 65 -58 74
0 99 60 53 127 -32 48 -15 74 25 38 15 -14 18 -14 30 0 11 13 11 18 -1 29 -20
20 -51 26 -77 16z"/>
<path d="M2769 3861 c-52 -54 -71 -109 -49 -136 26 -31 140 -6 140 31 0 11 -5
14 -17 9 -10 -3 -30 -9 -45 -12 -23 -5 -28 -2 -28 15 0 22 18 32 57 32 24 0
83 48 83 69 0 20 -32 41 -63 41 -24 0 -41 -11 -78 -49z m81 -1 c0 -12 -40 -34
-47 -26 -9 8 17 36 33 36 8 0 14 -4 14 -10z"/>
<path d="M1674 3816 c-9 -24 4 -48 23 -44 12 2 18 12 18 28 0 29 -32 41 -41
16z"/>
<path d="M1877 3819 c-23 -14 -47 -69 -47 -106 1 -47 36 -111 64 -119 80 -20
137 117 83 197 -24 37 -66 48 -100 28z m56 -62 c12 -16 21 -43 21 -69 1 -36
-2 -43 -19 -43 -42 0 -83 103 -53 133 16 16 28 11 51 -21z"/>
<path d="M3255 3814 c-16 -8 -37 -22 -46 -30 -10 -9 -26 -12 -48 -8 -20 4 -48
0 -76 -10 -45 -18 -115 -85 -115 -110 0 -22 29 -46 56 -46 13 0 24 -4 24 -10
0 -5 9 -14 21 -20 28 -16 99 -3 99 17 0 11 -7 14 -25 9 -14 -4 -25 -3 -25 1 1
5 41 51 90 103 l89 95 31 -18 c33 -20 60 -17 60 7 0 36 -82 48 -135 20z m-95
-84 c0 -4 -18 -24 -40 -44 -61 -55 -126 -44 -67 12 45 42 107 61 107 32z"/>
<path d="M1706 3708 c-17 -24 -22 -78 -7 -78 5 0 12 8 16 18 5 13 15 -2 40
-55 43 -93 74 -97 90 -10 8 42 -10 53 -24 15 -9 -22 -9 -22 -16 -3 -50 134
-69 156 -99 113z"/>
<path d="M3265 3635 c-41 -15 -105 -74 -105 -98 0 -26 39 -50 90 -55 41 -4 50
-2 50 12 0 9 -6 16 -14 16 -32 0 -66 19 -60 34 4 11 22 14 76 13 62 -2 72 0
85 20 14 20 13 24 -11 48 -28 28 -53 31 -111 10z m75 -35 c0 -5 -15 -10 -32
-10 -25 0 -29 3 -18 10 20 13 50 13 50 0z"/>
<path d="M1589 3601 c-10 -33 -15 -39 -26 -29 -21 17 -43 -10 -50 -61 -6 -44
7 -56 23 -20 8 18 14 11 47 -50 21 -39 42 -71 46 -71 5 0 14 7 21 15 10 12 6
25 -19 70 -31 55 -38 89 -22 114 6 10 18 -4 41 -48 40 -75 62 -90 84 -59 17
24 22 88 8 88 -5 0 -13 -10 -19 -22 -9 -20 -12 -17 -44 42 -43 82 -72 92 -90
31z"/>
<path d="M1404 3425 c-47 -72 16 -205 97 -205 37 0 62 37 61 89 -2 104 -112
185 -158 116z m84 -51 c12 -8 29 -29 38 -46 14 -27 14 -32 1 -46 -14 -13 -19
-13 -48 4 -36 21 -74 77 -64 94 9 15 47 12 73 -6z"/>
<path d="M3574 3442 c-33 -5 -54 -35 -63 -90 -10 -63 -25 -82 -65 -82 -33 0
-43 5 -64 32 -11 14 -11 21 3 41 16 26 11 57 -10 57 -18 0 -45 -34 -45 -57 0
-31 41 -84 83 -106 76 -39 139 0 152 93 4 27 13 54 20 60 20 16 66 8 79 -13 9
-15 6 -22 -19 -42 -24 -20 -26 -25 -13 -30 10 -4 32 2 50 12 18 10 34 19 36
19 8 3 -19 53 -42 75 -26 27 -61 37 -102 31z"/>
<path d="M1240 3256 c0 -13 7 -29 16 -37 9 -8 13 -21 10 -35 -7 -25 12 -44 24
-24 9 15 47 -8 89 -54 30 -32 67 -34 76 -5 11 34 -5 119 -22 119 -12 0 -14 -7
-9 -33 3 -18 3 -36 0 -40 -4 -3 -26 11 -51 31 -40 33 -44 40 -38 70 6 35 -8
44 -24 15 -9 -17 -10 -17 -28 0 -27 24 -43 21 -43 -7z"/>
<path d="M3620 3229 c0 -7 8 -17 17 -24 14 -10 7 -14 -46 -23 -35 -6 -69 -17
-77 -23 -23 -19 -16 -48 15 -67 22 -13 27 -22 20 -32 -14 -23 -11 -29 24 -50
38 -24 67 -26 67 -5 0 8 -7 15 -16 15 -26 0 -6 17 28 24 76 15 108 27 108 42
0 23 -26 28 -88 14 -41 -8 -65 -9 -85 -1 -36 14 -28 27 20 35 73 13 103 27
103 47 0 11 -14 28 -32 39 -37 22 -58 26 -58 9z"/>
<path d="M1204 3095 c-4 -8 -3 -30 0 -49 5 -28 4 -34 -11 -32 -23 1 -28 -33
-13 -79 13 -41 36 -48 26 -9 -8 29 -10 30 78 -29 46 -31 60 -36 67 -26 17 27
9 39 -46 74 -35 23 -57 45 -61 61 -10 39 1 39 53 1 46 -34 63 -41 92 -38 19 1
8 78 -14 100 -16 15 -17 14 -13 -11 3 -16 1 -28 -4 -28 -5 0 -33 18 -62 40
-56 42 -83 50 -92 25z"/>
<path d="M3635 2980 c-41 -16 -50 -37 -32 -74 18 -40 72 -82 82 -65 4 6 -5 24
-21 40 -20 21 -25 32 -17 40 16 16 81 28 111 20 22 -6 27 -14 29 -40 2 -39 7
-46 28 -38 18 8 19 55 1 79 -29 39 -129 60 -181 38z"/>
<path d="M1023 2811 c-2 -85 12 -128 49 -147 27 -14 32 -14 45 -1 20 20 11 33
-27 40 -20 5 -31 14 -36 31 -16 64 3 55 119 -61 107 -106 117 -120 117 -153 0
-41 6 -51 26 -43 18 7 18 56 0 91 -8 15 -33 45 -55 67 -41 39 -50 66 -31 95 8
12 14 13 42 2 39 -15 44 -10 53 51 7 48 -7 68 -20 27 -3 -11 -12 -20 -20 -20
-10 0 -195 55 -250 74 -7 2 -11 -19 -12 -53z m177 -72 c0 -31 -16 -29 -50 6
l-32 34 41 -11 c29 -7 41 -16 41 -29z"/>
<path d="M3785 2840 c-4 -6 -1 -17 5 -25 11 -13 1 -15 -70 -15 -71 0 -81 -2
-76 -16 3 -9 6 -20 6 -25 0 -5 25 -9 55 -9 66 0 111 -17 143 -55 22 -26 25
-26 40 -11 16 16 15 19 -10 40 -19 18 -23 27 -15 35 8 8 6 18 -9 37 -27 37
-60 58 -69 44z"/>
<path d="M3698 2659 c-41 -16 -38 -58 9 -109 24 -27 40 -37 46 -31 6 6 1 21
-17 41 -14 18 -24 36 -20 41 12 20 43 7 62 -25 38 -65 102 -84 117 -35 21 66
-116 148 -197 118z m152 -74 c18 -22 -8 -29 -31 -9 -10 9 -19 20 -19 25 0 11
38 -1 50 -16z"/>
<path d="M2091 2393 c0 -10 3 -13 5 -7 3 6 17 9 32 7 21 -4 24 -2 12 6 -23 17
-50 13 -49 -6z"/>
<path d="M1941 2044 c0 -11 3 -14 6 -6 3 7 2 16 -1 19 -3 4 -6 -2 -5 -13z"/>
<path d="M1842 1833 c-17 -38 -35 -84 -40 -104 -5 -19 -39 -81 -76 -136 -36
-56 -66 -105 -66 -109 0 -16 93 92 135 156 23 36 52 74 65 85 27 25 45 59 53
105 l7 35 -19 -25 -20 -25 6 43 c8 62 -9 52 -45 -25z"/>
<path d="M3510 1883 c1 -20 29 -43 44 -37 16 6 16 8 0 25 -17 19 -44 26 -44
12z"/>
<path d="M1655 1820 c-3 -5 -1 -10 4 -10 6 0 11 5 11 10 0 6 -2 10 -4 10 -3 0
-8 -4 -11 -10z"/>
<path d="M1936 1613 c-6 -14 -5 -15 5 -6 7 7 10 15 7 18 -3 3 -9 -2 -12 -12z"/>
<path d="M835 1528 c-40 -23 -60 -68 -31 -68 8 0 18 9 21 21 6 19 41 39 69 39
7 0 20 -6 30 -13 17 -12 11 -18 -63 -61 -51 -31 -89 -46 -101 -43 -29 7 -25
-5 15 -43 32 -31 62 -37 37 -7 -17 20 70 66 92 48 8 -7 12 -19 9 -27 -6 -17 5
-17 37 1 l25 13 -27 11 c-40 15 -42 29 -6 51 l33 20 24 -25 c21 -20 22 -26 11
-39 -10 -13 -10 -16 1 -16 8 0 22 7 32 14 17 13 15 17 -33 63 -29 26 -62 53
-74 60 -27 15 -75 16 -101 1z"/>
<path d="M960 1360 c0 -5 8 -10 18 -10 11 0 -1 -16 -36 -46 -42 -37 -50 -49
-41 -60 6 -8 22 -14 35 -14 16 0 24 -7 26 -22 2 -19 10 -24 41 -26 39 -3 53
14 15 20 -18 2 -13 9 35 42 31 22 57 43 57 47 0 21 -25 17 -67 -10 -27 -18
-59 -31 -77 -31 -31 1 -31 1 -10 18 11 9 36 29 54 43 43 33 36 59 -15 59 -19
0 -35 -4 -35 -10z"/>
<path d="M3745 1268 c-33 -17 -61 -31 -62 -32 -1 0 1 -13 4 -28 5 -29 23 -39
23 -14 0 13 41 46 58 46 4 0 1 -39 -7 -87 -15 -94 -10 -143 15 -143 12 0 14
10 9 58 -4 34 0 90 9 142 8 46 14 85 13 86 -1 1 -29 -12 -62 -28z"/>
<path d="M1105 1261 c-3 -5 2 -11 11 -13 13 -2 4 -15 -32 -51 -39 -37 -46 -49
-35 -56 10 -7 27 0 55 24 41 34 96 55 96 38 0 -5 -21 -28 -46 -51 -25 -22 -44
-47 -42 -54 6 -16 67 -23 81 -9 8 8 4 11 -13 11 -23 1 -21 4 23 45 62 57 60
85 -4 85 -12 0 -17 4 -13 11 3 6 0 15 -7 20 -18 12 -66 11 -74 0z"/>
<path d="M1419 1176 c-22 -15 -44 -23 -57 -19 -48 12 -152 -54 -152 -98 0 -21
32 -41 53 -33 9 3 16 -3 20 -17 5 -19 10 -21 46 -15 39 6 41 5 41 -19 0 -22 4
-25 35 -25 23 0 34 -4 33 -12 -2 -9 10 -13 39 -12 35 1 43 -3 45 -20 2 -16 10
-21 36 -21 19 0 32 -5 32 -12 0 -7 10 -13 23 -13 34 0 67 11 67 22 0 6 -9 8
-20 5 -11 -3 -20 -2 -20 1 0 3 26 46 58 94 l57 88 38 -6 c29 -5 37 -3 37 10 0
40 -106 21 -130 -23 -7 -14 -21 -21 -41 -21 -36 0 -64 -13 -104 -50 -31 -28
-65 -45 -65 -32 0 4 18 31 40 60 22 29 40 54 40 57 0 8 -89 17 -109 10 -12 -3
-35 -18 -53 -33 -29 -25 -78 -38 -78 -21 0 4 30 42 67 84 54 61 72 75 88 70
11 -4 28 -9 39 -12 14 -5 17 -1 14 13 -5 31 -74 31 -119 0z m-59 -54 c0 -14
-65 -72 -80 -72 -41 0 -32 31 17 65 31 21 63 24 63 7z m150 -74 c0 -19 -62
-78 -82 -78 -27 0 -22 28 11 61 30 29 71 39 71 17z m147 -54 c2 -6 -12 -28
-30 -49 -23 -27 -39 -37 -50 -32 -25 9 -21 21 18 62 32 35 55 41 62 19z"/>
<path d="M3555 1165 c-20 -19 -25 -34 -25 -72 1 -115 82 -191 140 -133 40 40
14 191 -38 219 -31 17 -51 13 -77 -14z m60 -27 c39 -56 56 -186 22 -175 -34
11 -88 145 -73 182 8 22 33 18 51 -7z"/>
<path d="M3400 1090 c-28 -28 -34 -65 -21 -126 13 -56 56 -114 85 -114 10 0
28 11 41 25 21 20 25 34 25 80 0 114 -74 191 -130 135z m53 -28 c37 -41 61
-162 35 -178 -29 -18 -78 81 -78 159 0 41 16 49 43 19z"/>
<path d="M3246 1009 c-17 -14 -26 -30 -26 -50 0 -38 16 -37 24 1 7 37 30 39
52 5 15 -23 14 -30 -10 -111 -14 -48 -23 -90 -20 -95 2 -5 29 4 59 18 50 25
55 30 55 61 0 19 -4 31 -10 27 -5 -3 -10 -12 -10 -19 0 -13 -49 -40 -57 -32
-3 3 4 33 16 67 26 78 26 104 1 129 -25 25 -41 25 -74 -1z"/>
<path d="M1774 960 c-39 -16 -84 -70 -84 -101 0 -26 3 -29 31 -29 18 0 37 -7
43 -15 9 -12 18 -13 49 -4 20 5 37 15 37 20 0 6 -9 8 -20 4 -27 -9 -26 -3 15
61 19 30 35 58 35 62 0 10 -81 12 -106 2z m34 -54 c-25 -37 -47 -56 -65 -56
-32 0 3 75 41 90 38 14 48 1 24 -34z"/>
<path d="M2458 723 c-89 -93 -43 -202 51 -123 27 23 20 40 -9 22 -27 -16 -50
-15 -50 3 0 8 19 25 41 37 23 13 51 28 63 35 11 7 22 10 25 8 2 -3 -2 -32 -8
-66 -7 -33 -10 -63 -7 -66 14 -15 34 10 40 50 6 42 36 87 56 87 13 0 12 -6 -5
-63 -15 -50 -12 -77 10 -77 19 0 66 40 59 52 -4 6 -10 6 -17 -1 -22 -22 -24
-10 -9 50 18 74 8 93 -37 68 -25 -15 -29 -15 -38 -1 -8 14 -14 13 -45 -6 -35
-22 -36 -22 -41 -2 -8 29 -48 25 -79 -7z m42 -18 c0 -8 -9 -19 -20 -25 -23
-12 -25 -7 -10 21 13 22 30 25 30 4z"/>
<path d="M2330 2302 c0 -4 9 -20 20 -37 11 -16 20 -38 20 -47 0 -10 9 -22 20
-28 19 -10 19 -10 -1 24 -11 20 -18 43 -15 53 4 13 -2 22 -19 30 -14 6 -25 8
-25 5z"/>
<path d="M2399 2101 l-23 -19 58 -37 c50 -32 69 -38 125 -41 55 -3 60 -2 26 5
-22 5 -46 6 -54 3 -10 -4 -13 -1 -8 10 4 12 -6 20 -41 33 -62 23 -70 32 -46
50 16 12 16 14 3 15 -9 0 -27 -8 -40 -19z"/>
<path d="M2885 1544 c-14 -15 -25 -35 -25 -45 0 -27 5 -24 29 16 11 19 27 35
36 35 9 0 13 5 10 10 -10 16 -24 12 -50 -16z"/>
</g>
</svg>
