<?xml version="1.0" standalone="no"?>
<!DOCTYPE svg PUBLIC "-//W3C//DTD SVG 20010904//EN"
 "http://www.w3.org/TR/2001/REC-SVG-20010904/DTD/svg10.dtd">
<svg version="1.0" xmlns="http://www.w3.org/2000/svg"
 width="502.000000pt" height="497.000000pt" viewBox="0 0 502.000000 497.000000"
 preserveAspectRatio="xMidYMid meet">
<metadata>
Created by potrace 1.10, written by Peter Selinger 2001-2011
</metadata>
<g transform="translate(0.000000,497.000000) scale(0.100000,-0.100000)"
fill="#ffffff" stroke="none">
<path d="M2209 4934 c-63 -67 -242 -157 -364 -182 -76 -16 -329 -8 -395 13
-83 26 -178 78 -245 134 l-60 50 -292 -297 -291 -297 47 -50 c114 -121 198
-285 238 -462 22 -95 25 -407 6 -463 -7 -19 -15 -55 -18 -79 -5 -36 -53 -183
-82 -251 -3 -8 -7 -22 -9 -30 -2 -8 -17 -48 -34 -89 -16 -41 -30 -80 -30 -87
0 -24 -18 -15 -40 21 -46 75 -136 127 -225 131 -33 1 -64 -1 -70 -5 -5 -5 -22
-11 -36 -14 -43 -11 -87 -67 -135 -172 -25 -55 -60 -131 -79 -170 -67 -143
-83 -185 -86 -227 -4 -70 38 -131 114 -162 l37 -15 0 -70 c0 -94 31 -217 83
-331 83 -179 245 -357 442 -487 90 -59 268 -154 315 -168 14 -4 43 -16 65 -26
41 -18 203 -76 380 -136 55 -18 114 -39 130 -47 17 -7 53 -21 80 -31 56 -19
83 -31 168 -69 32 -14 62 -26 67 -26 6 0 10 -4 10 -10 0 -5 6 -10 13 -10 33 0
211 -112 247 -155 8 -10 24 -39 35 -64 32 -75 40 -84 62 -77 12 4 28 28 43 64
43 108 128 170 390 284 115 51 291 121 310 123 18 3 37 9 116 41 33 14 102 38
153 54 50 16 106 36 124 44 18 7 68 29 112 47 268 113 489 273 632 460 47 61
123 184 123 198 0 5 9 31 20 57 36 83 60 191 60 268 0 74 0 74 30 81 60 13
130 96 130 155 0 17 -21 75 -46 128 -46 97 -68 143 -141 302 -41 87 -96 150
-132 150 -10 0 -21 3 -24 6 -3 4 -29 7 -57 7 -28 0 -54 -3 -57 -7 -3 -3 -16
-6 -27 -6 -43 0 -147 -86 -166 -136 -13 -33 -23 -30 -36 9 -6 17 -39 109 -73
202 -35 94 -69 199 -77 235 -46 208 -47 214 -41 330 13 279 100 508 260 686
l45 50 -130 135 c-72 74 -203 207 -290 297 l-159 163 -58 -53 c-67 -63 -186
-123 -280 -143 -43 -9 -115 -12 -206 -11 -121 3 -151 7 -220 30 -98 34 -212
93 -283 146 -29 22 -56 40 -60 40 -5 0 -19 -12 -33 -26z m84 -36 c18 -13 34
-26 35 -30 2 -5 9 -8 16 -8 6 0 35 -15 64 -34 28 -19 52 -33 52 -31 0 3 24 -6
53 -18 94 -42 182 -58 312 -58 211 1 337 42 478 155 l49 38 49 -53 c27 -29 49
-57 49 -61 0 -4 5 -8 10 -8 6 0 61 -53 123 -117 62 -64 156 -161 210 -216 86
-86 96 -101 85 -115 -7 -9 -34 -42 -60 -73 -26 -31 -45 -59 -41 -63 3 -3 2 -6
-4 -6 -9 0 -63 -89 -65 -107 0 -5 -13 -33 -29 -63 -15 -30 -30 -72 -34 -93 -3
-21 -9 -36 -13 -33 -4 2 -8 -5 -8 -17 -1 -65 -5 -98 -12 -93 -13 8 -8 -374 5
-419 7 -22 19 -70 28 -107 9 -37 23 -84 31 -104 8 -20 13 -43 10 -51 -3 -8 -1
-11 4 -8 11 7 25 -39 16 -53 -3 -6 1 -13 10 -16 9 -4 14 -13 10 -21 -3 -8 -2
-15 2 -15 12 0 45 -98 37 -110 -3 -5 -1 -10 4 -10 6 0 17 -16 25 -35 18 -43
45 -56 60 -29 18 32 101 111 136 129 38 20 129 26 178 13 45 -12 88 -59 119
-128 14 -30 36 -77 49 -105 13 -27 25 -57 26 -65 2 -8 6 -17 10 -20 10 -8 78
-161 78 -175 0 -8 5 -15 11 -17 6 -2 11 -20 11 -40 0 -47 -46 -114 -88 -128
-60 -20 -71 -44 -77 -160 -4 -85 -10 -120 -35 -185 -17 -44 -35 -79 -40 -78
-6 1 -13 -4 -16 -13 -3 -8 -2 -12 4 -9 51 31 -107 -195 -199 -285 -134 -132
-197 -179 -341 -256 -30 -16 -56 -32 -58 -36 -2 -5 -12 -8 -23 -8 -10 0 -19
-4 -19 -8 0 -4 -17 -14 -37 -21 -21 -8 -56 -22 -78 -32 -44 -20 -114 -46 -160
-59 -63 -18 -160 -55 -163 -62 -2 -5 -14 -8 -27 -8 -13 0 -27 -5 -31 -11 -3
-6 -17 -9 -30 -6 -13 2 -21 0 -18 -4 3 -5 -4 -9 -15 -9 -11 0 -22 -4 -25 -9
-3 -4 -27 -14 -53 -21 -27 -8 -51 -17 -54 -22 -3 -5 -16 -11 -30 -13 -13 -3
-33 -9 -44 -14 -11 -5 -36 -16 -55 -24 -107 -45 -206 -91 -214 -98 -6 -5 -18
-9 -28 -9 -10 0 -18 -4 -18 -9 0 -7 -48 -31 -71 -35 -6 -1 -55 -45 -96 -86
-14 -14 -36 -48 -50 -77 -28 -61 -41 -61 -71 5 -30 69 -72 109 -182 172 -19
11 -42 24 -50 30 -8 5 -40 20 -70 33 -30 14 -85 39 -123 56 -37 17 -71 31 -77
31 -5 0 -26 7 -47 16 -60 26 -124 52 -143 59 -3 1 -12 4 -20 7 -8 3 -40 13
-70 21 -30 9 -98 32 -150 52 -52 20 -122 45 -155 56 -33 11 -64 24 -69 29 -6
6 -16 10 -24 10 -19 0 -225 101 -234 114 -4 6 -8 7 -8 3 0 -5 -23 7 -50 27
-28 20 -54 36 -59 36 -13 0 -85 64 -203 181 -178 175 -268 351 -289 564 -6 61
-14 117 -18 125 -4 8 -27 24 -50 37 -57 30 -101 86 -101 130 0 19 6 36 13 39
8 3 14 10 14 17 0 12 29 77 103 232 21 44 48 103 60 130 23 55 71 111 110 128
38 17 139 16 179 0 44 -19 88 -57 139 -123 18 -22 21 -23 41 -10 20 14 34 46
88 197 9 24 19 41 23 38 4 -2 5 7 2 22 -4 19 -2 24 8 18 9 -5 11 -4 6 3 -4 7
-4 18 1 25 9 13 10 19 12 46 0 11 8 26 16 35 9 8 15 17 13 18 -1 2 6 47 17
100 10 54 21 94 24 89 10 -15 12 251 3 307 -6 36 -6 52 2 52 7 0 7 3 -1 8 -7
4 -14 29 -15 54 -2 25 -6 44 -9 42 -8 -5 -19 33 -19 69 0 15 -4 27 -9 27 -8 0
-23 44 -25 72 -1 4 -6 12 -13 19 -6 6 -9 18 -6 27 4 9 2 13 -4 9 -5 -3 -16 9
-23 28 -8 19 -17 35 -21 35 -3 0 -12 14 -19 30 -7 17 -28 47 -46 67 -19 20
-36 45 -40 55 -3 10 -9 16 -14 13 -14 -9 -21 27 -8 43 11 13 11 14 -1 8 -7 -5
43 48 113 118 69 69 126 131 126 138 0 6 3 9 6 6 3 -4 22 12 42 34 63 68 126
128 134 128 4 0 8 4 8 10 0 11 85 100 96 100 4 0 20 -14 36 -30 16 -17 33 -28
38 -25 4 3 10 2 12 -3 10 -25 155 -97 228 -113 19 -4 46 -10 60 -14 14 -3 84
-5 155 -5 170 2 194 3 188 12 -2 5 7 8 20 8 39 0 246 86 247 103 0 4 7 7 15 7
8 0 20 9 27 20 7 11 18 20 24 20 7 0 14 7 18 15 8 22 42 18 79 -7z"/>
<path d="M2250 4813 c-36 -11 -120 -55 -120 -64 0 -5 -9 -9 -19 -9 -11 0 -21
-3 -23 -7 -6 -15 -181 -83 -208 -82 -3 0 -18 -5 -35 -11 -32 -12 -258 -23
-251 -12 2 4 -13 6 -35 6 -21 -1 -41 2 -44 7 -3 4 -11 6 -18 4 -10 -5 -46 7
-182 59 -41 15 -95 49 -95 58 0 4 -6 8 -13 8 -8 0 -22 8 -33 18 -23 22 -13 29
-157 -113 -220 -218 -297 -302 -297 -325 0 -12 10 -36 23 -53 37 -53 119 -207
122 -232 1 -5 12 -30 23 -55 12 -25 22 -54 22 -65 0 -12 5 -26 11 -32 6 -6 11
-33 13 -60 1 -27 5 -53 8 -59 14 -22 29 -303 18 -334 -1 -3 -4 -25 -6 -50 -8
-75 -25 -151 -51 -225 -13 -38 -27 -81 -29 -94 -5 -22 -28 -79 -72 -171 -9
-19 -17 -39 -18 -45 0 -5 -4 -17 -7 -25 -3 -8 -16 -49 -28 -90 -12 -41 -24
-79 -28 -85 -10 -18 -13 -38 -18 -135 -4 -80 -1 -108 16 -165 20 -65 96 -234
110 -245 3 -3 19 -23 35 -44 39 -52 125 -134 148 -142 10 -3 18 -9 18 -14 0
-5 40 -29 89 -54 49 -24 86 -47 83 -51 -4 -4 -2 -6 3 -4 16 4 88 -11 108 -22
11 -6 21 -8 24 -5 3 3 23 -4 44 -14 21 -11 46 -20 55 -20 18 0 46 -8 142 -40
28 -10 52 -14 52 -10 0 5 -16 14 -35 20 -35 11 -44 23 -26 35 12 7 41 63 47
89 2 11 15 37 29 58 22 33 23 37 6 26 -11 -7 -35 -42 -53 -78 -55 -110 -55
-110 -91 -98 -48 16 -52 24 -23 53 14 14 26 29 26 33 0 6 11 20 71 90 10 12
19 26 19 30 0 5 24 37 54 71 39 44 57 75 61 103 9 52 -1 60 -14 12 -11 -39
-60 -109 -61 -87 0 7 14 41 31 76 l32 64 -24 47 c-25 51 -42 70 -59 64 -6 -2
5 -24 25 -50 l36 -48 -25 -47 c-13 -27 -30 -68 -37 -93 -14 -49 -37 -89 -115
-195 -28 -38 -54 -78 -57 -89 -5 -12 -13 -16 -25 -11 -9 4 -63 22 -118 40
-110 36 -189 73 -244 114 -83 61 -143 118 -185 173 -45 61 -115 195 -115 222
0 8 -4 17 -9 20 -11 7 -21 60 -27 146 -4 50 1 88 21 165 27 100 37 128 100
280 29 70 86 240 115 345 30 106 40 347 20 466 -15 87 -45 205 -69 269 -19 53
-109 225 -138 266 -18 26 -33 51 -33 55 0 15 397 424 411 424 5 0 36 -18 70
-40 81 -52 204 -99 309 -117 89 -16 239 -13 335 5 57 11 237 84 275 110 14 10
44 29 67 42 l42 23 93 -56 c154 -92 316 -137 498 -137 147 0 334 58 441 136
26 19 53 34 61 34 8 0 61 -51 119 -112 57 -62 148 -156 202 -210 l97 -98 -39
-57 c-121 -180 -198 -410 -216 -648 -13 -175 41 -458 122 -635 40 -87 111
-289 127 -360 21 -94 29 -193 18 -221 -6 -13 -16 -44 -23 -69 -19 -68 -86
-198 -131 -258 -98 -127 -323 -275 -365 -240 -15 12 -28 5 -19 -10 3 -6 27 -8
53 -7 64 5 73 7 73 17 0 4 16 14 35 23 20 8 56 29 82 47 49 35 153 137 153
150 0 4 7 8 15 8 8 0 15 8 15 18 0 10 13 32 29 48 16 15 27 34 24 40 -2 7 0
15 6 19 6 3 11 15 11 25 0 17 23 71 53 125 15 27 19 200 6 250 -6 22 -12 52
-13 66 -2 14 -6 30 -9 36 -4 6 -22 53 -41 105 -18 51 -43 117 -54 146 -12 28
-19 52 -15 52 4 0 0 6 -8 13 -17 13 -65 155 -56 164 3 3 -1 12 -9 20 -8 8 -12
23 -9 33 3 10 2 21 -4 24 -20 13 -48 226 -41 321 1 22 3 50 3 62 1 12 3 20 7
18 3 -2 5 31 5 73 0 43 5 86 9 97 5 11 10 23 11 28 2 4 4 10 5 15 1 4 2 16 1
27 -2 17 0 17 8 5 9 -13 11 -12 12 5 1 11 1 25 0 32 -2 18 70 197 83 205 6 5
7 8 1 8 -6 0 -5 3 1 8 6 4 19 22 28 40 9 17 21 32 27 32 6 0 9 7 5 15 -3 9 3
20 14 27 14 9 20 24 20 48 0 32 -15 50 -151 190 -82 85 -172 178 -198 206 -26
28 -57 54 -68 58 -22 7 -93 -28 -93 -46 0 -5 -5 -8 -12 -6 -6 2 -20 -4 -30
-14 -10 -10 -23 -16 -28 -13 -6 4 -10 2 -10 -3 0 -5 -15 -15 -32 -22 -18 -6
-41 -16 -50 -21 -10 -5 -29 -9 -42 -9 -14 0 -27 -4 -30 -9 -12 -19 -250 -39
-261 -21 -3 5 -21 6 -39 3 -20 -3 -59 2 -93 12 -156 47 -192 59 -187 67 3 4
-1 5 -9 3 -7 -3 -32 8 -55 25 -23 16 -46 30 -52 30 -5 0 -10 7 -10 15 0 9 -6
12 -17 8 -12 -5 -14 -3 -8 7 6 9 4 11 -5 5 -7 -4 -15 -3 -19 2 -3 6 -13 8 -21
6z"/>
<path d="M2053 4521 c-23 -15 -35 -32 -43 -63 -6 -24 -18 -65 -26 -92 -28 -98
-9 -135 43 -86 22 20 22 20 28 0 7 -22 26 -25 56 -10 13 7 19 7 19 0 0 -5 8
-10 18 -10 25 0 62 28 62 47 0 14 -3 13 -21 -3 l-21 -19 7 35 c4 19 13 53 21
75 7 21 12 40 10 42 -1 1 -20 -2 -42 -8 -43 -12 -90 -51 -100 -83 -6 -18 -42
-55 -55 -56 -3 0 6 46 20 103 l26 102 33 3 c25 3 32 8 30 20 -5 24 -28 25 -65
3z m101 -148 c-12 -50 -34 -82 -56 -83 -16 0 -7 59 13 84 28 36 52 35 43 -1z"/>
<path d="M2981 4497 c-14 -17 3 -41 23 -34 9 4 16 13 16 21 0 19 -26 28 -39
13z"/>
<path d="M1307 4491 c-82 -6 -91 -8 -113 -35 -20 -22 -24 -37 -22 -70 2 -28 8
-41 18 -41 9 0 14 7 12 20 -8 46 -3 69 20 87 40 31 47 24 33 -36 -21 -91 -36
-125 -56 -131 -10 -4 -19 -11 -19 -16 0 -11 180 -12 197 -1 19 12 20 46 1 50
-13 2 -18 -3 -18 -18 0 -16 -4 -20 -16 -16 -9 3 -33 6 -54 6 l-39 0 16 45 c12
37 19 45 39 45 15 0 24 -6 24 -16 0 -30 25 -7 28 26 3 27 1 32 -10 23 -7 -5
-24 -13 -37 -16 -21 -5 -23 -3 -17 25 3 17 6 34 6 39 0 5 18 9 41 9 32 0 40
-3 35 -15 -3 -9 0 -15 9 -15 8 0 15 6 15 14 0 8 3 21 6 30 3 9 2 15 -2 14 -5
-1 -49 -4 -97 -7z"/>
<path d="M2730 4470 c-13 -18 -17 -30 -10 -30 7 0 28 14 47 30 33 29 33 30 9
30 -16 0 -32 -11 -46 -30z"/>
<path d="M2463 4470 c-59 -36 -82 -119 -43 -155 34 -31 39 -7 8 36 -25 35 24
100 91 119 57 16 93 -27 53 -63 -38 -35 -47 -20 -25 41 3 7 -4 12 -20 12 -26
0 -45 -15 -28 -22 6 -2 2 -32 -9 -70 -22 -79 -26 -88 -46 -88 -8 0 -14 -6 -14
-13 0 -15 124 -7 156 11 37 20 46 72 17 104 -9 10 -11 18 -5 18 6 0 16 9 22
21 9 16 8 26 -5 45 -13 20 -23 24 -68 24 -34 0 -63 -7 -84 -20z m115 -128 c4
-30 -24 -62 -54 -62 -21 0 -22 2 -13 33 6 17 13 38 15 45 7 23 49 10 52 -16z"/>
<path d="M1456 4414 c-22 -22 -20 -54 5 -80 23 -24 20 -54 -5 -54 -7 0 -16 9
-19 20 -8 31 -29 24 -25 -7 2 -22 9 -29 30 -31 65 -8 93 56 46 105 -17 18 -19
26 -9 36 9 9 14 9 20 -2 5 -8 16 -11 26 -7 14 5 15 9 5 21 -16 20 -54 19 -74
-1z"/>
<path d="M1577 4406 c-28 -26 -53 -95 -44 -120 4 -9 13 -19 22 -22 33 -13 108
27 89 46 -8 8 -15 6 -24 -5 -7 -8 -21 -15 -31 -15 -22 0 -25 30 -8 79 12 33
22 37 65 21 19 -7 30 -7 40 1 17 14 17 7 -1 -60 -8 -30 -12 -58 -9 -63 8 -13
41 -9 54 7 7 8 16 15 21 15 5 0 9 -7 9 -15 0 -8 6 -15 14 -15 19 0 63 37 54
46 -4 4 -14 1 -23 -6 -19 -16 -19 -10 1 62 9 32 14 61 11 65 -15 14 -36 -9
-42 -47 -7 -39 -47 -101 -59 -90 -3 3 2 34 11 68 9 35 13 66 9 70 -4 3 -21 -1
-38 -11 -28 -16 -32 -16 -40 -3 -13 23 -51 19 -81 -8z"/>
<path d="M1876 4401 c-21 -22 -30 -43 -34 -79 -5 -54 5 -68 41 -58 30 8 73 43
65 52 -4 4 -19 -1 -33 -10 -14 -9 -30 -14 -35 -11 -19 12 -10 33 19 45 62 25
82 82 31 88 -18 2 -34 -6 -54 -27z m28 -32 c-24 -27 -30 -15 -9 18 12 17 20
23 23 15 2 -7 -4 -22 -14 -33z"/>
<path d="M2730 4420 c-67 -16 -124 -120 -86 -158 13 -13 18 -13 40 2 23 15 26
15 26 1 0 -19 34 -12 63 13 10 9 17 11 17 4 0 -22 40 -35 71 -22 40 17 48 53
20 90 -25 34 -27 50 -6 50 8 0 15 -4 15 -9 0 -17 35 -18 54 -2 18 15 19 15 12
-4 -42 -106 -34 -155 18 -114 l26 21 20 -24 19 -23 37 20 c21 11 40 26 42 33
3 11 -2 10 -26 -2 -16 -8 -32 -12 -36 -9 -10 10 -7 60 6 88 10 22 16 24 45 19
25 -5 33 -3 33 9 0 21 -33 27 -67 10 -29 -14 -63 -68 -63 -100 0 -9 -3 -13 -7
-10 -3 4 -12 2 -20 -5 -22 -18 -23 -5 -3 57 21 68 13 86 -26 61 -19 -13 -29
-15 -37 -7 -17 17 -62 13 -80 -7 -23 -25 -21 -35 9 -71 14 -17 23 -35 19 -41
-10 -16 -45 -12 -45 5 0 17 -23 20 -51 5 -24 -13 -24 -7 0 69 20 65 21 65 -39
51z m0 -59 c-13 -45 -29 -71 -45 -71 -19 0 -19 33 0 70 25 48 59 49 45 1z"/>
<path d="M3241 4423 c-59 -11 -101 -64 -101 -127 0 -43 14 -53 45 -32 20 13
24 13 29 1 3 -8 10 -15 15 -15 17 0 66 48 58 56 -4 5 -12 2 -17 -6 -20 -32
-21 3 -2 64 13 43 16 66 8 65 -6 -1 -22 -4 -35 -6z m-6 -55 c-9 -43 -32 -78
-50 -78 -24 0 -18 54 10 84 33 36 48 34 40 -6z"/>
<path d="M2011 4128 c-75 -21 -115 -75 -93 -123 13 -28 24 -31 41 -11 9 11 9
19 0 35 -11 17 -10 23 5 40 38 42 44 28 39 -81 -9 -172 -12 -180 -70 -163 -16
5 -25 2 -29 -10 -18 -47 67 -52 108 -6 20 23 27 43 32 93 10 116 14 238 7 237
-3 0 -21 -5 -40 -11z"/>
<path d="M2572 4071 c-46 -39 -24 -50 39 -21 54 26 60 35 27 44 -31 8 -29 9
-66 -23z"/>
<path d="M2168 4064 c-52 -28 -83 -137 -49 -177 19 -23 63 -21 95 4 50 40 69
105 45 152 -22 40 -46 46 -91 21z m47 -54 c9 -41 -3 -88 -25 -100 -15 -8 -21
-6 -30 9 -15 28 -12 73 6 99 21 31 41 28 49 -8z"/>
<path d="M2346 4038 c-21 -30 -20 -43 6 -90 19 -33 20 -40 8 -48 -23 -15 -30
-12 -40 16 -13 33 -35 26 -35 -12 0 -25 5 -30 37 -38 75 -19 117 52 68 114
-11 14 -20 31 -20 38 0 17 29 15 36 -3 8 -19 33 -19 40 0 17 44 -72 64 -100
23z"/>
<path d="M2505 4000 c-39 -25 -77 -92 -73 -128 2 -22 9 -28 33 -30 40 -5 105
18 105 36 0 14 -9 14 -70 0 -8 -2 -15 5 -18 14 -2 13 6 18 35 24 48 8 80 28
88 54 15 48 -45 66 -100 30z m53 -22 c-6 -16 -48 -43 -48 -30 0 13 28 42 42
42 5 0 8 -5 6 -12z"/>
<path d="M1500 3935 c-11 -13 -11 -19 3 -33 20 -19 41 -5 35 24 -4 24 -22 28
-38 9z"/>
<path d="M1669 3924 c-49 -52 -22 -183 40 -192 13 -2 32 8 51 27 26 25 30 37
30 84 0 97 -65 140 -121 81z m54 -32 c39 -43 44 -112 7 -112 -30 0 -66 101
-43 123 10 11 19 8 36 -11z"/>
<path d="M2925 3941 c-11 -5 -28 -18 -38 -29 -14 -16 -26 -18 -62 -14 -35 4
-53 -1 -90 -22 -82 -49 -97 -126 -23 -126 16 0 27 -4 23 -9 -3 -6 4 -15 15
-21 27 -14 90 -2 90 17 0 11 -7 13 -26 9 -22 -6 -11 9 57 84 45 49 85 90 89
90 3 0 16 -7 28 -16 26 -18 52 -12 52 10 0 31 -67 46 -115 27z m-95 -81 c0
-12 -44 -56 -71 -71 -11 -6 -27 -8 -35 -5 -13 5 -13 8 0 27 29 42 106 78 106
49z"/>
<path d="M1536 3852 c-21 -25 -34 -92 -16 -92 6 0 14 10 17 21 5 17 11 10 31
-37 26 -64 39 -84 54 -84 10 0 38 61 38 85 0 24 -28 18 -32 -7 -2 -17 -10 -4
-27 42 -31 85 -42 97 -65 72z"/>
<path d="M2945 3782 c-64 -22 -122 -83 -109 -116 7 -19 70 -39 104 -34 39 5
34 25 -10 32 -25 4 -40 12 -40 21 0 22 12 24 62 13 39 -9 51 -8 72 6 14 9 26
22 26 30 0 32 -64 61 -105 48z m55 -42 c0 -5 -15 -10 -32 -10 -25 0 -29 3 -18
10 20 13 50 13 50 0z"/>
<path d="M1431 3761 c-6 -11 -11 -30 -11 -42 0 -18 -3 -20 -12 -11 -20 20 -35
14 -47 -19 -15 -44 -14 -69 4 -69 9 0 15 9 15 23 0 15 12 1 38 -45 37 -68 47
-75 65 -47 7 11 2 27 -17 57 -25 39 -36 112 -18 112 4 0 20 -25 35 -55 30 -63
53 -78 73 -50 16 22 19 85 4 85 -5 0 -10 -11 -10 -25 0 -39 -13 -29 -45 38
-32 65 -57 81 -74 48z"/>
<path d="M2194 3722 c-16 -9 -33 -16 -39 -17 -30 -2 -75 -18 -75 -26 0 -5 -7
-9 -15 -9 -8 0 -15 -9 -15 -19 0 -11 -4 -23 -10 -26 -5 -3 -10 -14 -10 -23 0
-14 -30 -43 -50 -48 -11 -2 -46 -16 -60 -23 -8 -5 -16 -22 -18 -39 -2 -18 -11
-37 -21 -44 -35 -25 -41 -50 -20 -92 17 -36 18 -41 3 -57 -11 -13 -13 -22 -6
-35 5 -9 7 -24 5 -33 -2 -10 8 -25 26 -39 18 -13 28 -28 25 -36 -3 -8 3 -20
13 -27 19 -13 36 -43 38 -64 0 -5 4 -16 9 -23 9 -15 -11 -129 -26 -149 -5 -7
-6 -22 -2 -35 4 -12 7 -42 7 -66 0 -42 -2 -45 -44 -64 -24 -10 -65 -26 -91
-35 -27 -8 -64 -32 -85 -53 -21 -20 -47 -40 -58 -44 -21 -6 -55 -38 -104 -96
-19 -23 -48 -42 -82 -54 -135 -48 -155 -72 -94 -116 19 -14 35 -27 35 -30 0
-3 -48 -29 -107 -58 -154 -75 -146 -67 -124 -138 45 -141 115 -301 108 -244
-2 14 -10 37 -17 52 -10 21 -10 31 -1 42 9 11 9 15 -1 19 -11 3 -11 8 0 26 7
13 8 21 2 21 -6 0 -13 -7 -17 -16 -5 -13 -7 -13 -14 -2 -5 7 -9 21 -9 31 0 13
6 16 24 13 19 -3 23 -1 19 10 -4 11 -14 13 -34 9 -33 -8 -39 9 -11 32 16 13
15 14 -5 10 -35 -8 -31 36 5 61 35 26 122 72 134 72 9 0 25 12 64 47 13 12 24
18 24 13 0 -9 62 -24 93 -22 25 1 22 -6 -29 -57 -47 -46 -74 -94 -74 -128 0
-10 -9 -26 -21 -36 -13 -12 -18 -24 -14 -38 4 -11 2 -25 -3 -32 -10 -12 -82
-148 -82 -155 0 -2 5 0 10 3 6 3 10 0 10 -7 0 -43 118 181 140 267 17 65 86
154 120 155 l25 0 -25 20 c-14 11 -50 27 -80 36 -76 23 -140 51 -140 62 0 5
21 15 47 21 73 19 99 36 198 135 95 96 161 147 205 161 14 4 46 18 73 31 l47
24 0 -31 c0 -25 3 -30 18 -27 14 4 18 0 18 -16 -1 -16 4 -20 23 -18 23 2 23 1
16 -55 -8 -67 -34 -101 -102 -134 -24 -12 -55 -36 -69 -55 -15 -19 -30 -31
-36 -28 -22 14 -70 -61 -61 -96 4 -13 -2 -29 -14 -43 -11 -12 -23 -42 -26 -67
l-6 -45 29 60 c17 32 32 77 35 98 6 44 21 77 36 77 13 0 4 -73 -16 -130 -12
-34 -12 -38 1 -33 8 3 14 11 14 18 0 7 16 36 35 65 19 29 35 60 35 70 0 21
116 140 137 140 16 0 14 -5 -32 -70 -37 -53 -99 -179 -100 -200 0 -8 -5 -14
-12 -13 -10 2 -35 -24 -71 -72 -16 -22 -32 -83 -26 -99 6 -16 -60 -162 -100
-221 -27 -39 -58 -96 -54 -100 2 -2 15 -6 30 -10 21 -5 29 -2 40 19 7 13 26
46 42 72 23 37 26 48 15 55 -12 7 -11 9 1 9 10 0 23 26 39 75 13 41 27 75 31
75 16 0 41 -51 35 -71 -4 -11 -2 -25 3 -32 11 -14 23 -76 25 -129 0 -21 4 -38
9 -38 4 0 13 -18 19 -41 11 -34 10 -42 -2 -50 -9 -6 -10 -9 -2 -9 17 0 34 -35
27 -54 -7 -18 -13 -19 -32 -7 -15 9 -36 84 -48 176 -3 22 -8 47 -11 55 -3 8
-7 44 -9 80 -2 35 -9 69 -15 75 -9 7 -10 -5 -6 -47 4 -41 2 -58 -6 -58 -9 0
-9 -2 0 -8 6 -4 11 -14 10 -22 -3 -31 16 -134 33 -181 10 -27 16 -49 14 -49
-16 0 -54 35 -50 46 3 7 1 14 -4 16 -6 2 -13 32 -17 68 -3 36 -13 71 -20 79
-12 11 -13 6 -9 -35 6 -63 16 -105 30 -123 9 -12 6 -13 -19 -8 l-30 7 30 -16
c17 -9 32 -20 35 -24 3 -4 16 -11 30 -15 14 -4 32 -13 40 -20 21 -18 64 -30
56 -16 -4 6 -3 11 3 11 5 0 13 -4 16 -10 3 -5 14 -10 23 -10 15 1 16 2 1 13
-15 11 -28 47 -32 91 -2 14 5 19 25 20 14 1 24 -2 22 -6 -3 -4 -2 -13 2 -19 9
-16 43 48 44 82 0 38 -20 74 -58 98 -19 13 -31 18 -28 12 4 -5 -2 -15 -13 -20
-25 -14 -41 -14 -21 -1 13 8 13 10 -1 10 -17 0 -39 59 -39 105 0 16 -8 37 -17
48 -17 18 -17 19 2 16 26 -5 75 33 75 58 0 10 -11 35 -25 55 l-25 38 20 20
c11 11 20 25 20 30 0 6 3 10 8 10 12 0 56 -32 70 -52 7 -10 23 -23 35 -29 21
-11 21 -10 -3 17 -13 16 -39 44 -57 63 -18 18 -33 42 -33 53 0 17 4 19 27 13
24 -6 25 -5 13 10 -14 17 -24 55 -14 55 11 0 68 -33 87 -51 12 -10 25 -19 30
-19 4 0 33 -20 62 -44 30 -24 75 -52 101 -62 92 -36 285 -134 280 -142 -2 -4
4 -9 15 -9 10 -1 19 1 19 4 0 14 -36 63 -46 63 -6 0 -17 7 -24 15 -6 8 -35 25
-63 39 -29 13 -61 30 -71 39 -18 13 -13 14 56 12 l76 -3 -16 33 c-9 19 -24 36
-33 38 -18 5 -31 61 -34 148 -1 31 -5 61 -9 67 -11 19 -26 14 -26 -8 0 -28
-19 -25 -30 5 -5 14 -17 25 -27 25 -14 1 -13 4 6 14 26 14 78 11 99 -6 6 -6
12 -20 12 -31 0 -11 5 -36 12 -54 10 -27 10 -38 0 -53 -11 -18 -10 -20 9 -20
16 0 19 -4 14 -21 -4 -13 -1 -25 9 -32 8 -7 16 -28 18 -47 l3 -35 20 23 c11
12 23 22 28 22 5 0 7 -10 5 -22 -2 -15 -11 -24 -26 -26 -18 -3 -22 -8 -17 -20
4 -9 10 -25 12 -34 3 -10 12 -18 19 -18 8 0 14 -7 14 -15 0 -18 -16 -20 -24
-2 -3 6 -5 3 -3 -7 1 -12 13 -23 32 -28 40 -10 59 14 137 174 4 10 8 27 8 39
0 21 0 21 25 -2 22 -21 23 -25 9 -36 -10 -7 -16 -32 -18 -72 -4 -65 -24 -106
-83 -166 -16 -16 -32 -38 -36 -48 -5 -14 -11 -16 -26 -7 -11 5 -59 9 -108 9
-84 -1 -168 17 -200 43 -7 5 -13 5 -17 0 -3 -5 22 -22 57 -37 56 -26 85 -34
167 -51 24 -5 26 -10 27 -65 0 -32 6 -66 13 -74 11 -13 9 -19 -6 -36 -25 -27
-28 -63 -8 -80 16 -13 16 -12 5 6 -10 15 -10 27 -1 49 9 25 12 27 23 13 21
-28 100 -75 115 -69 9 3 13 0 11 -7 -3 -7 -40 -28 -83 -47 -44 -19 -88 -42
-98 -51 -10 -9 -18 -12 -18 -7 0 5 -5 1 -11 -9 -6 -9 -14 -15 -20 -12 -5 4 -9
2 -9 -3 0 -5 -8 -12 -17 -16 -10 -3 -24 -9 -32 -12 -9 -4 -11 -2 -7 5 4 6 5
11 2 11 -3 0 -12 -13 -21 -29 -8 -16 -28 -35 -45 -43 -16 -7 -30 -16 -30 -21
0 -10 -44 -26 -50 -18 -11 13 -52 32 -58 26 -9 -9 50 -54 71 -55 10 0 20 7 23
15 4 8 11 15 16 15 6 0 33 16 59 35 27 19 53 35 58 35 5 0 11 3 13 8 4 9 118
77 208 124 53 27 64 38 62 55 -2 12 7 39 20 60 37 60 26 154 -22 200 -32 30
-37 47 -17 60 17 11 73 94 83 123 4 14 7 36 5 49 -2 14 1 21 7 17 7 -4 9 7 7
29 -3 30 -1 34 11 24 8 -7 12 -14 10 -16 -3 -3 8 -19 24 -36 16 -18 37 -41 47
-53 10 -11 35 -29 56 -39 56 -26 34 -43 -52 -39 -89 4 -106 -7 -88 -56 24 -64
40 -90 59 -95 10 -4 18 -11 18 -16 0 -5 6 -9 14 -9 12 0 26 -20 26 -36 0 -14
-20 -1 -21 14 0 9 -3 12 -5 6 -2 -5 -17 -9 -32 -8 -23 1 -27 -2 -28 -28 -1
-24 3 -30 27 -35 16 -3 29 -12 29 -20 0 -9 -6 -13 -15 -9 -9 3 -24 -2 -33 -12
-54 -51 -61 -55 -77 -42 -18 15 -20 14 -29 -22 l-6 -27 32 15 c18 8 45 19 61
25 16 7 27 18 27 30 0 11 7 19 16 19 11 0 14 -5 10 -16 -4 -11 -2 -14 6 -11 7
3 33 13 58 22 25 10 49 22 55 27 5 4 19 8 31 8 13 0 25 4 28 9 3 4 23 11 44
15 22 3 45 12 51 20 12 14 5 46 -10 46 -5 0 -10 10 -10 23 -1 17 -2 18 -6 4
-3 -10 3 -29 11 -42 9 -14 12 -25 7 -25 -15 0 -50 41 -46 54 2 6 6 23 9 39 7
28 26 38 26 12 0 -8 7 -15 15 -15 8 0 15 -9 15 -20 0 -11 6 -20 14 -20 24 0
29 -20 10 -35 -17 -13 -17 -14 -2 -15 9 0 19 4 23 10 3 5 12 7 20 3 29 -11 14
16 -40 71 -30 30 -55 60 -55 66 0 6 -4 8 -10 5 -5 -3 -10 -1 -10 4 0 6 -6 11
-12 11 -7 0 -43 27 -80 59 -37 33 -75 62 -85 66 -20 6 -78 79 -109 135 -10 19
-29 43 -41 53 -40 32 -53 74 -52 161 1 45 -1 91 -5 104 -5 13 -3 22 3 22 6 0
11 9 11 21 0 31 -15 15 -30 -33 -7 -24 -21 -52 -30 -63 -10 -11 -20 -27 -23
-35 -3 -9 -6 -4 -6 11 -1 15 8 37 18 51 11 13 23 38 27 54 3 16 13 34 20 40
11 8 12 18 5 35 -5 13 -10 18 -10 11 -1 -7 -5 -11 -10 -8 -13 9 -1 46 15 46 8
0 14 7 14 16 0 12 8 9 33 -10 19 -15 39 -26 45 -26 7 0 20 -8 30 -17 10 -10
27 -23 38 -29 10 -7 18 -19 18 -28 -1 -9 8 -19 22 -22 13 -3 24 -10 24 -14 0
-5 9 -12 20 -15 36 -11 154 -86 190 -120 19 -19 47 -37 62 -40 39 -10 25 -25
-22 -25 -29 0 -48 -8 -73 -30 -19 -16 -55 -38 -80 -49 -43 -19 -50 -19 -88 -6
-55 20 -72 19 -94 -5 -18 -20 -18 -21 7 -45 15 -13 30 -35 33 -47 9 -29 44
-68 62 -68 7 0 13 -4 13 -8 0 -16 82 -91 118 -108 20 -9 59 -27 86 -40 57 -28
60 -28 50 -12 -4 7 6 2 24 -10 19 -14 29 -28 25 -37 -3 -10 2 -15 16 -15 12 0
21 -6 21 -15 0 -27 21 -16 35 19 33 78 97 286 93 298 -9 21 -149 86 -233 108
-113 29 -113 34 -9 53 37 7 69 18 72 25 2 6 -12 17 -30 25 -18 8 -55 31 -81
51 -27 21 -87 60 -133 88 -46 27 -94 62 -107 77 -29 34 -81 73 -134 100 -32
16 -43 27 -43 45 0 13 7 26 15 30 8 3 15 12 15 21 0 9 8 32 19 53 10 20 25 64
32 97 7 33 21 71 31 85 10 14 20 51 23 86 6 66 -9 219 -24 238 -4 6 -11 29
-13 51 -7 51 -50 115 -88 132 -17 6 -30 18 -30 26 0 23 -50 67 -76 67 -12 0
-26 5 -29 10 -3 6 -15 10 -26 10 -10 0 -19 3 -19 8 0 4 -26 15 -57 25 -55 18
-61 18 -107 2 -27 -9 -58 -14 -70 -12 -12 3 -37 10 -57 15 -27 7 -43 5 -65 -6z
m256 -12 c0 -5 -5 -10 -11 -10 -5 0 -7 5 -4 10 3 6 8 10 11 10 2 0 4 -4 4 -10z
m-235 -10 c-3 -5 1 -10 10 -10 9 0 14 4 11 8 -3 5 1 9 9 9 8 0 15 -8 15 -18 0
-10 5 -21 10 -24 6 -3 10 1 10 9 0 12 11 16 43 16 24 0 48 -5 55 -12 8 -8 15
-8 25 0 8 7 16 9 20 6 9 -9 48 6 42 17 -8 11 -3 11 29 -1 14 -5 26 -16 26 -24
0 -12 22 -23 68 -32 35 -7 80 -36 92 -59 8 -15 27 -33 42 -41 15 -8 28 -21 28
-29 0 -8 4 -15 8 -15 11 0 45 -108 37 -120 -3 -6 -1 -10 5 -10 7 0 10 -12 9
-27 -2 -16 2 -38 9 -50 7 -13 10 -45 8 -80 -3 -32 -5 -70 -5 -85 -1 -30 -22
-37 -43 -15 -15 17 -56 10 -81 -14 -11 -10 -24 -39 -29 -66 -11 -55 -11 -58
-2 -97 4 -18 3 -27 -3 -23 -15 9 -8 -80 8 -99 9 -12 10 -15 1 -10 -10 6 -10 2
0 -19 9 -21 9 -29 -4 -41 -11 -12 -13 -25 -7 -57 4 -24 3 -47 -2 -54 -6 -6 -7
-22 -4 -35 5 -18 -1 -33 -21 -57 -21 -26 -25 -39 -21 -66 6 -38 -22 -132 -43
-145 -7 -4 -10 -12 -6 -18 8 -13 -13 -72 -26 -72 -5 0 -7 12 -4 28 3 15 8 44
12 65 5 27 9 35 15 25 7 -10 9 -10 9 2 0 9 -4 20 -10 26 -6 6 -6 15 0 24 8 13
10 12 10 -3 0 -10 4 -16 8 -13 5 3 8 29 8 58 -1 41 3 59 20 78 12 14 25 36 29
48 7 23 7 24 -12 5 -11 -10 -18 -21 -16 -26 2 -4 -2 -10 -10 -13 -16 -6 -34
-43 -41 -86 -3 -15 -8 -33 -12 -40 -4 -7 -11 -28 -14 -48 -6 -34 -7 -32 -30
44 -17 52 -32 84 -47 93 -26 17 -30 33 -8 33 8 0 14 4 12 9 -3 13 112 103 123
96 6 -3 10 -10 10 -15 0 -9 -74 -62 -103 -73 -10 -4 -15 -11 -12 -17 7 -11 52
9 103 47 26 19 31 29 26 46 -8 26 -34 58 -43 53 -3 -2 -16 0 -28 5 -25 9 -23
29 6 63 15 18 15 18 -6 7 -13 -6 -24 -7 -27 -2 -4 5 0 11 6 14 7 2 10 7 7 11
-3 3 -14 4 -23 0 -20 -8 -21 -37 -2 -54 8 -6 13 -17 10 -24 -3 -8 2 -16 10
-19 13 -5 14 -12 5 -34 -15 -41 -48 -67 -127 -102 -67 -29 -76 -31 -131 -22
-32 5 -68 15 -79 22 -12 7 -35 44 -52 81 -17 37 -35 70 -40 73 -4 3 -16 37
-25 77 -10 40 -22 82 -28 93 -6 11 -12 56 -13 100 -2 44 -6 133 -10 197 -8
149 -1 200 36 242 27 30 52 97 51 139 0 18 7 21 26 9 11 -7 0 -60 -28 -130 -9
-23 -9 -23 16 -5 21 15 24 24 20 50 -4 23 -1 34 11 41 9 5 15 15 12 23 -3 8 5
18 16 24 11 6 22 19 24 30 3 18 2 18 -13 -2 -21 -30 -49 -29 -73 2 -29 36 -35
31 -30 -25 4 -42 2 -52 -19 -71 -12 -13 -23 -29 -23 -36 0 -8 -7 -16 -15 -19
-8 -4 -15 -12 -15 -20 0 -8 -5 -14 -11 -14 -5 0 -8 -4 -5 -9 4 -5 0 -11 -6
-14 -10 -3 -10 -9 -2 -23 9 -15 8 -22 -3 -32 -7 -7 -10 -18 -7 -24 4 -7 2 -8
-4 -4 -7 4 -12 3 -12 -3 0 -5 4 -12 9 -15 10 -7 12 -76 3 -76 -11 0 -32 52
-26 61 3 5 -2 9 -10 9 -20 0 -20 -14 -2 -32 9 -10 11 -20 4 -31 -13 -24 -31
-21 -25 4 4 15 2 19 -9 15 -12 -5 -14 -1 -9 15 5 16 4 19 -6 14 -9 -6 -10 -3
-4 11 14 33 8 103 -10 117 -6 4 3 18 23 35 21 18 32 36 32 54 0 22 7 29 45 44
25 9 50 26 56 36 5 10 14 16 20 13 5 -4 6 -11 3 -17 -4 -7 -2 -8 5 -4 9 6 9
11 1 21 -13 15 -5 55 11 55 5 0 9 6 9 14 0 15 12 20 71 30 21 4 42 13 49 21
14 17 24 20 15 5z m-225 -516 c0 -8 -5 -14 -11 -14 -6 0 -8 -9 -4 -20 8 -26
-11 -26 -25 -1 -16 31 -12 46 15 47 15 1 25 -3 25 -12z m3 -84 c3 -11 1 -18
-4 -14 -5 3 -9 12 -9 20 0 20 7 17 13 -6z m785 -12 c14 -14 15 -104 1 -133 -7
-15 -8 -12 -5 17 3 26 0 38 -10 42 -12 4 -14 1 -9 -14 9 -27 -12 -97 -33 -110
-14 -9 -14 -10 6 -5 21 6 22 5 10 -22 -15 -37 -36 -59 -45 -49 -5 4 -9 38 -10
74 -1 37 -3 78 -4 92 -6 61 1 80 34 100 37 23 49 24 65 8z m-781 -150 c-3 -8
-6 -5 -6 6 -1 11 2 17 5 13 3 -3 4 -12 1 -19z m11 -55 c3 -29 8 -46 24 -81 8
-19 14 -44 13 -56 -2 -12 14 -48 36 -80 21 -32 39 -64 39 -71 0 -7 7 -15 15
-19 8 -3 15 -12 15 -20 0 -7 8 -16 19 -19 10 -2 38 -32 61 -67 29 -43 36 -59
22 -51 -20 11 -85 -2 -109 -21 -7 -5 -18 -7 -25 -3 -7 3 1 -5 17 -20 44 -38
122 -72 210 -90 43 -9 79 -14 82 -12 2 2 -1 15 -6 28 -8 20 -10 21 -10 5 -1
-18 -2 -18 -19 -3 -14 13 -21 14 -30 5 -9 -9 -12 -8 -12 4 0 8 7 21 16 29 13
10 17 10 24 -1 5 -8 12 -11 17 -7 4 5 1 13 -7 18 -11 8 -12 12 -2 16 6 2 12
12 11 21 0 11 -2 12 -6 4 -2 -6 -9 -9 -15 -6 -5 3 -12 -3 -15 -15 -6 -24 -8
-25 -33 -11 -13 7 -21 7 -25 0 -8 -14 -57 -13 -105 2 -48 15 -50 23 -10 37 31
10 78 6 115 -11 11 -5 6 3 -12 20 -18 16 -33 35 -33 42 0 7 -7 22 -17 32 -25
28 -10 31 36 7 46 -23 65 -51 58 -80 -3 -10 -1 -22 4 -25 5 -3 9 4 9 15 0 16
6 21 24 21 26 0 32 -12 35 -63 0 -15 6 -37 11 -48 6 -11 9 -28 6 -37 -9 -26
-125 -18 -186 13 -25 13 -66 29 -91 36 -26 7 -61 25 -79 39 l-33 27 12 97 c6
53 12 100 12 104 5 33 -3 82 -13 80 -6 -2 -18 10 -27 27 -8 16 -16 24 -19 17
-5 -15 -32 -16 -32 -1 0 5 5 7 10 4 6 -3 10 1 10 10 0 9 -4 14 -8 11 -5 -3 -7
20 -6 51 2 31 -1 63 -7 70 -14 16 -5 43 14 43 7 0 14 -8 15 -17z m542 -223 c0
-5 -4 -10 -10 -10 -5 0 -10 5 -10 10 0 6 5 10 10 10 6 0 10 -4 10 -10z m147
-185 c-7 -75 -22 -115 -44 -115 -6 0 -15 -10 -19 -22 -4 -13 -14 -29 -23 -36
-14 -11 -13 -12 8 -10 15 2 25 10 27 21 4 31 35 59 50 46 11 -9 11 -14 -1 -26
-20 -19 -19 -33 1 -33 11 0 14 -5 9 -17 -4 -10 -11 -32 -16 -49 -5 -18 -17
-38 -26 -45 -15 -13 -15 -12 -4 9 6 12 8 22 3 22 -13 0 -42 -68 -36 -83 3 -8
-2 -19 -10 -26 -13 -11 -17 -7 -31 24 -8 21 -15 39 -15 42 0 8 36 40 53 46 27
10 20 26 -10 24 -24 -2 -28 2 -28 23 0 14 10 43 22 66 13 22 23 53 23 67 0 30
16 37 22 10 3 -10 5 2 6 26 1 38 28 111 41 111 2 0 1 -34 -2 -75z m-796 -96
c-12 -13 -23 -31 -27 -41 -3 -10 -10 -18 -15 -18 -11 0 -12 17 -1 22 4 2 19
21 32 42 13 22 26 34 28 28 2 -6 -6 -21 -17 -33z m129 7 c0 -2 -7 -9 -15 -16
-12 -10 -15 -10 -15 4 0 9 7 16 15 16 8 0 15 -2 15 -4z m20 -36 c0 -5 -4 -10
-10 -10 -5 0 -10 5 -10 10 0 6 5 10 10 10 6 0 10 -4 10 -10z m290 -27 c0 -11
-6 -14 -22 -9 -13 3 -31 6 -41 6 -10 0 -16 4 -13 9 10 16 76 11 76 -6z m-203
-24 c6 -6 26 -12 44 -14 19 -2 58 -13 88 -25 30 -12 63 -19 73 -17 10 3 18 1
18 -4 0 -5 17 -9 38 -9 45 0 82 -9 82 -21 0 -4 -35 -7 -77 -5 -61 2 -90 9
-130 30 -29 14 -75 31 -102 37 -48 10 -92 39 -59 39 8 0 19 -5 25 -11z m1061
-16 c13 -8 30 -12 37 -9 8 3 17 1 20 -3 2 -5 19 -12 37 -15 40 -8 83 -43 93
-75 5 -17 4 -22 -5 -16 -9 6 -11 0 -8 -24 3 -20 0 -31 -8 -31 -16 0 -24 -36
-11 -49 7 -7 5 -12 -6 -17 -12 -4 -14 -11 -8 -23 12 -22 -8 -48 -34 -43 -20 3
-20 3 -1 -13 15 -11 17 -18 9 -26 -9 -9 -23 -4 -54 20 -24 17 -48 31 -54 31
-17 0 -159 74 -192 100 -38 30 -103 109 -103 126 0 17 33 18 62 3 14 -7 17
-14 9 -18 -7 -4 7 -20 37 -42 64 -46 75 -48 27 -4 -22 20 -34 34 -27 30 22
-11 12 14 -18 45 -27 27 -34 30 -76 25 -30 -4 -44 -2 -39 5 3 5 -1 10 -9 10
-9 0 -16 5 -16 10 0 16 40 12 57 -6 9 -8 19 -12 22 -7 7 10 43 9 60 -1 6 -4
11 -3 11 2 0 12 56 33 64 25 3 -4 6 -2 6 4 0 16 89 5 118 -14z m-927 -70 c18
-9 28 -18 21 -21 -14 -4 -72 20 -72 30 0 12 14 10 51 -9z m-371 -38 c-7 -9
-15 -13 -19 -10 -3 3 1 10 9 15 21 14 24 12 10 -5z m427 -1 c-3 -3 -12 -4 -19
-1 -8 3 -5 6 6 6 11 1 17 -2 13 -5z m58 -24 c3 -5 1 -10 -4 -10 -6 0 -11 5
-11 10 0 6 2 10 4 10 3 0 8 -4 11 -10z m-471 -35 c20 -31 20 -54 -1 -77 -38
-43 -99 -9 -89 50 9 57 61 72 90 27z m-449 -84 c-8 -17 -17 -31 -19 -31 -7 0
6 40 15 46 5 3 10 15 10 27 1 16 3 17 6 5 2 -9 -3 -30 -12 -47z m1517 -10
c-19 -12 -24 -67 -7 -81 13 -11 14 -9 10 16 -10 51 7 60 55 29 35 -22 41 -30
35 -48 -16 -53 -16 -68 -1 -92 18 -27 16 -29 -36 -38 -15 -2 -25 0 -22 4 10
16 -19 9 -35 -8 -24 -27 -78 -63 -93 -63 -8 1 -7 5 5 14 9 7 17 21 17 31 0 10
5 15 14 12 13 -5 32 9 64 48 18 21 30 19 34 -7 2 -14 6 -19 10 -12 4 6 1 20
-7 30 -13 19 -14 18 -42 -2 l-29 -21 0 21 c0 11 7 26 15 32 12 9 10 12 -13 12
-28 0 -28 -1 -22 -45 7 -51 -7 -50 -24 2 -12 38 -7 55 16 55 8 0 12 4 9 10 -3
6 1 7 9 4 10 -4 16 -1 16 9 0 20 -49 31 -100 22 -34 -6 -41 -4 -46 12 -3 10
-10 26 -15 36 -10 18 -5 19 78 16 82 -3 88 -2 85 16 -3 16 -2 17 13 5 9 -7 12
-16 7 -19z m-350 -85 c43 -10 78 -70 78 -134 0 -72 -12 -92 -56 -92 -67 0 -97
35 -110 127 -5 44 -3 54 15 72 11 11 21 25 21 31 0 5 6 8 13 6 6 -3 24 -7 39
-10z m249 -39 c-11 -11 -51 13 -51 30 0 8 9 7 30 -5 16 -9 25 -21 21 -25z
m-1158 -113 c-16 -26 -35 -50 -43 -52 -12 -4 -11 0 3 15 9 11 17 23 17 27 0
12 42 68 47 63 2 -3 -9 -26 -24 -53z m1155 26 c13 -16 20 -30 18 -30 -4 0 -54
20 -64 26 -5 3 10 34 17 34 4 0 17 -13 29 -30z m-862 -18 c18 -12 26 -50 14
-72 -13 -25 -75 -28 -84 -4 -10 25 -7 59 6 72 13 13 47 16 64 4z"/>
<path d="M2333 3663 c9 -2 23 -2 30 0 6 3 -1 5 -18 5 -16 0 -22 -2 -12 -5z"/>
<path d="M2269 3634 c-7 -8 -6 -15 2 -19 6 -4 14 -3 18 4 4 6 19 12 34 13 39
3 33 14 -8 14 -20 0 -40 -5 -46 -12z"/>
<path d="M2220 3630 c0 -5 5 -10 10 -10 6 0 10 5 10 10 0 6 -4 10 -10 10 -5 0
-10 -4 -10 -10z"/>
<path d="M2455 3630 c-3 -5 -2 -10 4 -10 5 0 13 5 16 10 3 6 2 10 -4 10 -5 0
-13 -4 -16 -10z"/>
<path d="M2141 3610 c-10 -5 -9 -8 2 -13 7 -3 19 -2 26 3 10 5 9 8 -2 13 -7 3
-19 2 -26 -3z"/>
<path d="M2294 3595 c-18 -15 -16 -15 26 -9 65 9 85 23 34 24 -22 0 -49 -7
-60 -15z"/>
<path d="M2241 3576 c-7 -16 -18 -26 -30 -26 -11 0 -23 -4 -26 -10 -4 -6 8
-10 28 -10 31 0 35 3 41 32 8 40 0 49 -13 14z"/>
<path d="M2340 3560 c-27 -17 0 -24 33 -7 30 15 31 16 7 16 -14 0 -32 -3 -40
-9z"/>
<path d="M2421 3529 c-1 -21 -31 -33 -45 -19 -14 14 -49 13 -43 -2 2 -7 11
-12 21 -10 9 2 16 -2 16 -8 0 -6 -4 -9 -9 -5 -6 3 -14 -3 -20 -12 -6 -11 -11
-13 -11 -5 0 7 -4 10 -10 7 -5 -3 -10 1 -10 9 0 18 -11 21 -27 5 -7 -7 -15 -6
-26 5 -9 9 -29 16 -46 16 -25 0 -32 -5 -37 -27 -4 -16 -13 -39 -22 -52 -13
-22 -13 -26 4 -38 24 -17 39 -17 24 2 -6 8 -9 19 -5 24 7 12 67 3 76 -11 3 -5
18 -4 33 2 15 5 38 10 51 10 16 0 30 10 42 30 18 30 37 38 48 20 10 -17 50
-11 73 10 33 31 27 33 -17 8 -45 -26 -66 -18 -31 12 22 19 22 20 2 20 -11 0
-23 6 -25 13 -4 7 -6 6 -6 -4z m-173 -49 c4 0 8 -11 8 -25 2 -34 -11 -31 -30
6 -14 28 -14 30 0 25 9 -3 19 -6 22 -6z m66 -42 c-7 -11 -32 -10 -39 2 -11 18
5 30 25 18 10 -7 16 -16 14 -20z m-104 12 c0 -5 -4 -10 -10 -10 -5 0 -10 5
-10 10 0 6 5 10 10 10 6 0 10 -4 10 -10z"/>
<path d="M1973 3482 c-31 -24 -36 -72 -7 -72 13 0 14 3 5 14 -9 10 -8 16 4 26
20 16 38 50 28 50 -4 0 -18 -8 -30 -18z"/>
<path d="M2531 3477 c-1 -10 5 -24 12 -31 13 -13 37 -10 37 5 0 4 -6 6 -13 3
-8 -3 -18 5 -25 18 -9 19 -11 20 -11 5z"/>
<path d="M2536 3404 c-4 -9 -4 -19 -2 -21 8 -8 26 8 26 23 0 19 -16 18 -24 -2z"/>
<path d="M2415 3387 c-4 -10 -5 -21 -1 -24 10 -10 18 4 13 24 -4 17 -4 17 -12
0z"/>
<path d="M1906 3365 c13 -34 54 -50 54 -20 0 8 -8 15 -18 15 -10 0 -24 6 -31
13 -10 10 -11 8 -5 -8z"/>
<path d="M2543 3344 c-3 -9 -2 -24 4 -33 13 -20 63 -23 63 -4 0 10 -6 12 -20
8 -23 -7 -28 13 -8 33 9 9 7 12 -10 12 -13 0 -25 -7 -29 -16z"/>
<path d="M2631 3338 c-9 -23 -6 -38 7 -38 4 0 7 14 8 30 1 36 -4 38 -15 8z"/>
<path d="M2670 3264 c0 -14 4 -23 9 -20 5 3 7 15 4 26 -7 28 -13 25 -13 -6z"/>
<path d="M1961 3264 c0 -11 3 -14 6 -6 3 7 2 16 -1 19 -3 4 -6 -2 -5 -13z"/>
<path d="M2560 3260 c0 -5 -7 -10 -15 -10 -18 0 -20 -16 -2 -27 6 -4 18 -16
26 -26 12 -15 12 -17 -3 -11 -9 3 -16 1 -16 -4 0 -16 14 -22 29 -13 10 6 10
13 2 29 -8 15 -7 23 5 33 14 12 20 9 41 -16 24 -29 24 -29 18 -5 -9 30 -32 51
-51 43 -8 -3 -14 0 -14 6 0 6 -4 11 -10 11 -5 0 -10 -4 -10 -10z"/>
<path d="M2447 3248 c4 -7 6 -21 5 -30 -2 -10 2 -18 8 -18 6 0 9 4 6 9 -4 5 0
11 6 14 10 3 10 7 -1 20 -16 20 -36 23 -24 5z"/>
<path d="M2200 3217 c0 -19 16 -31 24 -18 3 5 -1 14 -9 21 -12 10 -15 10 -15
-3z"/>
<path d="M2127 3159 c-10 -6 -36 -8 -58 -4 -25 4 -39 3 -39 -4 0 -20 5 -26 22
-23 26 5 31 -15 8 -38 -17 -17 -18 -24 -9 -41 6 -11 13 -18 16 -15 4 3 12 1
20 -5 10 -9 18 -8 32 5 12 11 20 13 23 6 2 -6 11 -8 20 -5 13 5 17 18 15 55
-1 26 -5 46 -10 43 -4 -2 -11 5 -15 16 -5 15 -11 18 -25 10z m18 -49 c3 -5 -1
-10 -9 -10 -8 0 -18 5 -21 10 -3 6 1 10 9 10 8 0 18 -4 21 -10z m-9 -26 c19
-9 34 -20 34 -25 0 -6 -8 -5 -19 1 -25 13 -64 13 -56 0 9 -15 -4 -12 -21 4
-18 19 -18 24 4 29 9 3 19 5 20 6 2 0 19 -6 38 -15z"/>
<path d="M2210 3151 c0 -11 5 -23 10 -26 6 -3 10 3 10 14 0 11 -4 23 -10 26
-5 3 -10 -3 -10 -14z"/>
<path d="M2283 3164 c-7 -3 -13 -15 -13 -26 0 -10 -11 -38 -24 -61 -29 -50
-50 -123 -39 -139 4 -7 6 -31 5 -53 -1 -22 1 -33 5 -25 15 37 44 38 60 3 13
-28 8 -47 -6 -24 -7 10 -14 10 -40 -3 -29 -16 -33 -16 -56 1 -21 15 -24 24
-20 48 4 17 9 46 11 65 5 30 3 32 -6 17 -7 -11 -14 -44 -17 -75 -5 -55 -4 -57
26 -74 17 -10 35 -27 40 -39 7 -20 8 -21 15 -4 6 17 7 17 22 -1 14 -17 15 -17
10 -2 -3 12 3 24 19 34 34 22 34 72 -1 97 -20 15 -28 16 -39 7 -11 -9 -15 -9
-15 -1 0 6 4 11 8 11 5 0 14 16 20 36 9 32 9 34 -6 22 -13 -11 -15 -11 -10 2
3 8 13 41 23 72 21 70 40 83 123 87 55 2 70 -1 103 -23 29 -20 38 -32 35 -49
-2 -12 1 -27 6 -33 5 -7 7 -16 6 -20 -2 -5 2 -11 7 -14 6 -3 11 5 13 18 2 12
-1 22 -7 22 -6 0 -11 16 -11 35 0 25 -8 43 -27 63 -26 27 -33 29 -118 30 -49
1 -96 -1 -102 -4z m-33 -354 c0 -5 -4 -10 -10 -10 -5 0 -10 5 -10 10 0 6 5 10
10 10 6 0 10 -4 10 -10z"/>
<path d="M2613 3136 c3 -7 0 -19 -6 -25 -6 -6 -7 -11 -1 -11 5 0 15 9 21 19
10 16 9 20 -4 25 -10 4 -14 2 -10 -8z"/>
<path d="M2566 3125 c4 -8 10 -12 15 -9 14 8 10 24 -6 24 -9 0 -12 -6 -9 -15z"/>
<path d="M2303 3095 c-21 -17 -33 -35 -33 -51 0 -13 -5 -24 -11 -24 -6 0 -3
-7 5 -16 23 -22 36 -9 29 31 -5 29 -2 35 12 35 11 0 15 -5 11 -15 -6 -17 9
-21 19 -5 4 6 13 5 25 -3 16 -9 24 -9 42 2 16 10 23 10 26 2 5 -15 27 -14 41
2 19 23 -30 59 -86 64 -40 3 -53 0 -80 -22z m118 -1 c39 -20 31 -28 -15 -16
-31 9 -36 8 -37 -6 0 -11 -2 -12 -6 -4 -2 6 -11 12 -19 12 -15 0 -19 12 -7 23
11 12 53 8 84 -9z"/>
<path d="M2605 3069 c14 -42 22 -129 12 -129 -5 0 -7 -16 -5 -35 3 -30 1 -34
-14 -29 -13 4 -18 0 -18 -15 0 -11 -7 -27 -16 -35 -8 -9 -12 -21 -8 -28 5 -8
2 -9 -9 -5 -10 3 -17 2 -17 -3 0 -5 8 -10 18 -12 12 -2 20 6 27 27 6 16 14 28
19 27 37 -14 68 205 35 245 -17 20 -31 16 -24 -8z"/>
<path d="M2385 3020 l-30 -6 28 -6 c32 -6 67 0 67 13 0 8 -17 8 -65 -1z"/>
<path d="M2110 3000 c0 -5 4 -10 9 -10 6 0 13 5 16 10 3 6 -1 10 -9 10 -9 0
-16 -4 -16 -10z"/>
<path d="M2507 2939 c-15 -22 -27 -48 -26 -57 0 -14 2 -14 6 -2 3 8 14 23 25
34 10 11 18 23 18 28 0 4 7 8 16 8 9 0 14 5 12 12 -8 24 -25 17 -51 -23z"/>
<path d="M2425 2890 c-3 -5 1 -10 10 -10 9 0 13 5 10 10 -3 6 -8 10 -10 10 -2
0 -7 -4 -10 -10z"/>
<path d="M2443 2819 c-16 -16 -17 -45 -3 -54 13 -8 23 17 18 45 -2 17 -5 19
-15 9z"/>
<path d="M2136 2751 c-11 -12 -16 -27 -12 -37 6 -16 8 -16 25 0 17 16 22 16
54 2 20 -8 37 -13 39 -12 2 2 30 6 64 9 57 6 62 5 74 -18 16 -30 30 -32 30 -4
0 22 -36 58 -57 59 -7 0 -13 -5 -13 -11 0 -7 -11 -9 -32 -4 -18 3 -59 7 -90 7
-42 0 -58 4 -60 15 -2 12 -7 11 -22 -6z"/>
<path d="M2288 2683 c7 -3 16 -2 19 1 4 3 -2 6 -13 5 -11 0 -14 -3 -6 -6z"/>
<path d="M2174 2655 c-17 -14 -15 -15 36 -14 67 2 132 -10 142 -25 5 -7 8 -4
8 7 0 10 -8 20 -17 23 -10 3 -26 10 -35 15 -28 14 -112 11 -134 -6z"/>
<path d="M2473 2646 c-4 -7 -15 -16 -23 -19 -12 -4 -12 -6 2 -6 10 -1 22 8 28
19 12 22 6 28 -7 6z"/>
<path d="M2401 2616 c-12 -14 -57 -31 -76 -28 -13 2 -37 -36 -27 -42 5 -3 19
2 33 9 13 8 40 22 59 32 46 23 45 22 33 34 -7 7 -14 5 -22 -5z"/>
<path d="M2716 3049 c-37 -29 -33 -45 5 -17 30 23 31 23 45 4 14 -19 14 -19
14 1 0 11 -7 24 -16 27 -21 8 -18 9 -48 -15z"/>
<path d="M2696 2985 c-3 -8 2 -19 11 -23 10 -6 14 -16 10 -26 -9 -23 0 -20 13
4 13 24 4 60 -15 60 -7 0 -15 -7 -19 -15z"/>
<path d="M2100 2550 c11 -23 18 -45 15 -50 -8 -13 70 -62 92 -58 14 3 9 8 -19
22 -36 17 -66 65 -54 85 4 5 -3 12 -14 16 -11 3 -20 11 -20 16 0 5 -5 9 -10 9
-6 0 -1 -18 10 -40z"/>
<path d="M2080 2495 c7 -9 15 -13 17 -11 7 7 -7 26 -19 26 -6 0 -6 -6 2 -15z"/>
<path d="M2310 2452 c6 -13 14 -21 18 -18 3 4 -2 14 -12 24 -18 16 -18 16 -6
-6z"/>
<path d="M2076 2441 c-18 -20 -14 -41 7 -41 7 0 18 9 25 20 7 11 19 20 27 20
8 0 15 5 15 10 0 18 -56 11 -74 -9z"/>
<path d="M3127 2256 c-4 -10 -1 -13 8 -9 8 3 12 9 9 14 -7 12 -11 11 -17 -5z"/>
<path d="M3270 2231 c0 -5 5 -13 10 -16 6 -3 10 -2 10 4 0 5 -4 13 -10 16 -5
3 -10 2 -10 -4z"/>
<path d="M3351 2194 c0 -11 3 -14 6 -6 3 7 2 16 -1 19 -3 4 -6 -2 -5 -13z"/>
<path d="M3036 2184 c-3 -7 2 -15 10 -18 8 -3 14 -1 14 4 0 5 7 7 16 3 12 -4
15 -2 12 8 -6 18 -45 20 -52 3z"/>
<path d="M3150 2191 c0 -5 8 -12 18 -15 9 -3 6 -4 -8 -2 -14 2 -34 7 -45 12
-18 7 -18 6 -6 -9 7 -9 21 -17 30 -17 10 0 32 -11 51 -25 36 -26 52 -33 32
-13 -9 9 -8 14 4 23 13 9 11 11 -12 11 -16 -1 -30 5 -30 12 -1 6 -2 17 -3 22
-1 13 -31 13 -31 1z"/>
<path d="M3087 2132 c5 -19 94 -92 92 -75 -1 4 -23 27 -49 51 -35 31 -47 38
-43 24z"/>
<path d="M3257 2142 c-3 -4 3 -13 14 -20 10 -7 19 -8 19 -3 0 13 -28 33 -33
23z"/>
<path d="M3300 2100 c0 -15 21 -23 32 -12 6 6 2 11 -11 15 -12 3 -21 1 -21 -3z"/>
<path d="M3262 2081 c2 -8 15 -21 29 -30 19 -11 21 -12 9 0 -8 8 -21 21 -29
29 -11 12 -12 12 -9 1z"/>
<path d="M3200 2062 c0 -10 63 -72 74 -72 9 0 -57 80 -66 80 -5 0 -8 -4 -8 -8z"/>
<path d="M1847 2113 c-11 -11 -8 -63 4 -63 5 0 7 4 4 10 -8 13 14 52 26 45 5
-4 9 -1 9 4 0 12 -33 15 -43 4z"/>
<path d="M2910 1990 c0 -5 5 -10 11 -10 5 0 7 5 4 10 -3 6 -8 10 -11 10 -2 0
-4 -4 -4 -10z"/>
<path d="M2581 1894 c-22 -29 -23 -35 -11 -74 7 -23 8 -22 9 11 1 39 26 69 57
69 16 0 17 2 4 10 -24 15 -37 12 -59 -16z"/>
<path d="M2608 1833 c6 -2 18 -2 25 0 6 3 1 5 -13 5 -14 0 -19 -2 -12 -5z"/>
<path d="M2665 1820 c3 -5 8 -10 11 -10 2 0 4 5 4 10 0 6 -5 10 -11 10 -5 0
-7 -4 -4 -10z"/>
<path d="M2600 1774 c0 -2 13 -10 30 -19 24 -13 29 -13 24 -1 -4 12 -54 30
-54 20z"/>
<path d="M1266 3594 c-50 -50 -9 -178 64 -197 48 -13 87 51 69 116 -20 76 -93
121 -133 81z m94 -90 c37 -59 -6 -76 -59 -23 -29 28 -39 58 -25 72 13 13 65
-17 84 -49z"/>
<path d="M3174 3585 c-15 -10 -23 -29 -27 -66 -7 -59 -20 -79 -51 -79 -48 0
-83 49 -55 77 18 18 2 45 -23 41 -19 -2 -23 -10 -25 -43 -2 -22 3 -47 10 -55
74 -91 175 -75 192 31 4 24 12 50 17 57 15 17 53 15 69 -4 12 -14 10 -19 -13
-38 -18 -14 -24 -26 -19 -34 6 -10 16 -8 47 9 21 13 41 24 43 25 6 5 -30 58
-53 76 -26 21 -84 23 -112 3z"/>
<path d="M1110 3431 c0 -17 6 -31 15 -35 11 -4 14 -13 9 -30 -7 -28 11 -44 23
-21 7 12 18 7 57 -30 53 -49 81 -57 91 -24 11 34 -4 109 -22 109 -12 0 -14 -7
-9 -35 4 -19 3 -35 -1 -35 -4 0 -26 17 -47 37 -34 31 -37 39 -27 55 12 19 7
38 -9 38 -5 0 -12 -9 -15 -21 l-7 -21 -22 21 c-30 28 -36 26 -36 -8z"/>
<path d="M3247 3413 c-12 -11 -8 -23 8 -23 8 0 15 -4 15 -9 0 -5 -25 -13 -56
-16 -51 -7 -84 -24 -84 -45 0 -5 13 -19 30 -31 23 -17 27 -26 19 -36 -15 -17
1 -36 42 -53 27 -12 28 -14 14 -30 -20 -23 -19 -42 6 -74 25 -32 56 -49 71
-40 7 5 -1 17 -23 36 -33 27 -33 29 -15 43 24 18 102 20 113 3 4 -7 6 -21 5
-31 -4 -20 25 -34 39 -20 17 17 -2 64 -35 84 -20 12 -50 19 -83 19 -40 0 -53
4 -53 15 0 8 -7 15 -15 15 -8 0 -15 4 -15 8 0 4 34 14 75 21 41 8 75 17 75 20
0 4 -6 15 -12 24 -12 15 -18 15 -66 3 -52 -14 -110 -9 -104 10 2 5 30 15 63
22 73 16 85 35 43 69 -30 23 -46 28 -57 16z m-23 -168 c-4 -8 -10 -13 -15 -10
-4 3 -6 12 -3 20 4 8 10 13 15 10 4 -3 6 -12 3 -20z"/>
<path d="M1083 3248 c5 -39 4 -49 -5 -40 -7 7 -16 12 -20 12 -14 0 -9 -75 6
-96 18 -24 31 -13 16 15 -6 12 -9 21 -6 21 3 0 34 -20 69 -45 53 -37 66 -42
71 -29 11 29 6 39 -30 59 -42 22 -74 60 -74 87 0 15 9 12 51 -22 53 -42 86
-50 95 -25 9 21 -15 85 -32 85 -17 0 -18 -12 -2 -28 6 -6 9 -14 6 -18 -4 -3
-30 13 -58 35 -29 23 -61 41 -72 41 -19 0 -20 -4 -15 -52z m27 -73 c11 -13 10
-14 -4 -9 -9 3 -16 10 -16 15 0 13 6 11 20 -6z"/>
<path d="M919 3083 c-6 -43 3 -140 15 -158 18 -28 54 -41 68 -27 15 15 1 45
-17 38 -18 -6 -45 30 -45 60 0 18 24 -1 110 -87 98 -98 110 -113 107 -142 -3
-40 29 -52 38 -14 8 32 -14 74 -64 123 -32 32 -38 44 -34 67 6 30 16 33 53 12
25 -13 25 -13 37 38 8 39 8 54 0 59 -8 5 -13 -1 -15 -17 -2 -14 -7 -25 -11
-25 -13 0 -206 61 -223 70 -10 6 -19 7 -19 3z m86 -63 c-3 -4 13 -15 34 -24
31 -12 38 -19 34 -35 -5 -19 -10 -17 -59 22 -60 47 -65 56 -29 49 14 -2 23 -8
20 -12z"/>
<path d="M3390 3055 c0 -8 4 -15 10 -15 12 0 45 -49 38 -56 -3 -2 -16 0 -29 5
-17 7 -19 10 -6 10 9 1 17 5 17 10 0 10 -150 20 -156 10 -1 -3 0 -15 3 -27 5
-20 12 -22 72 -22 62 0 70 -3 96 -30 30 -32 49 -37 61 -18 4 6 -4 21 -20 35
-15 12 -22 23 -17 23 21 0 11 26 -22 58 -37 36 -47 39 -47 17z"/>
<path d="M335 2922 c-61 -29 -77 -52 -82 -124 -6 -74 7 -114 41 -130 23 -10
29 -7 71 36 40 40 80 63 80 46 0 -3 10 -17 23 -30 20 -21 22 -32 17 -70 -3
-25 -10 -56 -15 -70 -13 -40 -17 -54 -18 -64 0 -5 -5 -12 -11 -16 -6 -3 -13
-17 -16 -30 -2 -12 -11 -30 -20 -40 -8 -9 -15 -21 -15 -26 0 -5 -12 -20 -25
-33 -14 -12 -22 -27 -19 -32 3 -5 2 -9 -3 -9 -4 0 -26 -16 -48 -35 -22 -19
-46 -35 -53 -35 -7 0 -10 -4 -7 -10 3 -5 1 -10 -4 -10 -19 0 -12 -121 14 -230
26 -113 95 -266 143 -317 15 -16 36 -41 47 -57 29 -40 147 -156 160 -156 6 0
18 -8 26 -17 26 -29 69 -63 92 -73 23 -10 58 -31 67 -40 20 -19 249 -130 270
-130 6 0 8 -5 4 -12 -4 -6 -3 -8 3 -5 12 8 82 -12 103 -29 8 -6 31 -15 50 -19
19 -4 40 -11 45 -15 6 -4 17 -7 25 -8 14 0 61 -15 105 -33 46 -19 81 -32 90
-34 17 -2 50 -18 56 -27 3 -5 21 -10 40 -13 32 -4 82 -22 164 -60 17 -8 44
-18 60 -23 17 -5 29 -14 28 -20 -2 -6 3 -9 11 -6 8 3 31 -4 52 -15 21 -12 44
-21 50 -21 6 0 17 -7 24 -15 7 -8 16 -13 20 -10 4 3 13 -2 20 -10 7 -8 19 -15
26 -15 8 0 14 -4 14 -9 0 -5 11 -12 25 -15 14 -4 25 -11 25 -16 0 -6 7 -10 15
-10 8 0 15 -4 15 -10 0 -5 5 -10 11 -10 6 0 32 -20 57 -45 25 -25 52 -45 61
-45 9 0 36 20 61 45 25 24 51 44 58 45 6 0 12 4 12 9 0 5 14 14 31 21 17 7 36
18 43 24 24 22 60 41 197 105 36 17 71 31 77 31 6 0 45 16 86 35 41 19 84 36
95 38 11 2 23 6 27 9 3 4 13 4 22 1 9 -4 13 -2 9 3 -5 9 36 25 213 82 8 3 20
6 25 6 6 1 19 6 30 12 11 6 43 17 72 24 29 8 50 17 47 21 -5 9 54 24 81 20 11
-2 17 0 13 4 -9 10 91 57 103 49 5 -3 9 -1 9 5 0 5 10 13 23 17 12 3 29 12 37
19 8 6 31 18 50 25 19 7 43 22 53 32 10 10 23 18 30 18 7 0 24 11 39 25 15 14
30 25 33 25 4 0 13 6 20 13 33 29 45 37 54 37 6 0 15 9 21 20 6 11 15 20 20
20 5 0 35 28 67 62 32 34 66 70 76 80 9 10 17 21 17 26 0 4 14 22 30 40 17 18
30 36 30 39 0 3 14 35 31 72 17 36 35 75 40 86 18 40 56 244 48 257 -5 7 -9
29 -9 49 0 31 -4 37 -35 49 -19 7 -33 16 -30 18 2 2 -9 15 -25 28 -35 30 -91
119 -82 130 4 4 1 4 -5 0 -7 -4 -14 -2 -14 3 -3 20 -5 26 -28 76 -28 62 -45
139 -37 169 7 29 39 66 57 66 8 0 23 -12 34 -26 11 -15 34 -38 52 -51 31 -24
34 -25 58 -9 14 9 25 23 25 32 0 8 4 13 8 10 10 -6 5 80 -7 129 -5 19 -22 41
-50 60 -82 57 -199 33 -271 -57 -40 -49 -50 -84 -60 -213 -5 -55 -12 -125 -15
-155 -12 -101 -104 -338 -125 -325 -4 3 -7 -1 -6 -8 0 -7 -8 -27 -19 -43 -31
-45 -204 -214 -220 -214 -8 0 -15 -4 -15 -8 0 -8 -130 -78 -140 -75 -3 0 -14
-4 -25 -10 -11 -6 -28 -11 -38 -12 -11 -1 -22 -6 -25 -12 -7 -10 -84 -29 -109
-26 -7 0 -13 -4 -13 -10 0 -6 -3 -7 -7 -4 -3 4 -12 2 -20 -4 -7 -6 -13 -8 -13
-4 0 4 -11 0 -24 -8 -13 -9 -34 -18 -47 -19 -13 -2 -33 -9 -45 -15 -11 -7 -41
-19 -65 -28 -57 -21 -58 -21 -96 -30 -18 -4 -33 -12 -33 -17 0 -5 -5 -6 -10
-3 -5 3 -10 2 -10 -3 0 -4 -26 -19 -57 -32 -32 -13 -66 -31 -75 -40 -9 -8 -46
-30 -83 -49 -36 -19 -68 -38 -71 -42 -3 -5 -12 -9 -19 -9 -8 0 -23 -6 -32 -14
-10 -8 -48 -38 -86 -66 -73 -55 -85 -56 -132 -6 -27 28 -182 130 -223 146 -18
7 -37 21 -43 31 -5 10 -13 18 -17 17 -14 -4 -82 24 -82 33 0 6 -5 7 -10 4 -6
-3 -10 -2 -10 4 0 6 -6 8 -14 5 -7 -3 -20 2 -29 10 -9 9 -20 16 -26 16 -6 0
-19 4 -29 9 -9 5 -28 13 -42 19 -14 6 -47 20 -73 31 -26 11 -63 23 -82 27 -19
3 -35 10 -35 14 0 4 -12 10 -27 13 -16 3 -37 8 -48 11 -11 3 -44 12 -73 19
-29 7 -51 15 -48 18 3 2 -6 6 -19 7 -13 1 -40 11 -60 22 -19 11 -42 20 -51 20
-9 0 -12 5 -8 12 4 6 3 8 -4 4 -12 -7 -92 31 -92 45 0 5 -6 9 -14 9 -8 0 -16
4 -18 8 -2 4 -32 32 -67 61 -65 53 -160 166 -161 189 0 6 -3 12 -8 12 -4 0
-15 15 -24 33 -28 55 -57 127 -51 127 3 0 1 6 -5 13 -6 6 -15 41 -22 77 -6 36
-16 87 -21 113 -5 27 -9 76 -9 110 0 34 -7 86 -14 115 -8 28 -12 52 -9 52 4 0
-1 8 -10 18 -10 10 -14 22 -10 25 3 4 2 7 -3 7 -6 0 -20 9 -32 20 -36 34 -105
65 -147 68 -23 1 -57 -6 -80 -16z m159 -32 c73 -35 116 -120 116 -231 0 -113
36 -292 77 -389 37 -85 49 -108 85 -163 55 -82 90 -119 177 -190 71 -58 246
-157 277 -157 8 0 22 -4 32 -9 9 -5 37 -15 62 -21 25 -7 54 -16 65 -20 11 -4
53 -18 93 -31 40 -12 75 -26 78 -31 3 -4 15 -8 27 -8 12 0 37 -9 55 -20 18
-11 38 -20 44 -20 6 0 29 -9 52 -19 23 -11 66 -31 96 -45 122 -57 268 -148
334 -211 22 -20 50 -41 64 -46 26 -10 62 -4 62 11 0 12 93 82 150 113 118 63
166 92 175 103 9 12 174 93 199 99 17 3 49 16 68 26 10 5 27 9 37 9 11 0 22 4
25 8 3 5 38 19 78 31 40 13 81 27 90 32 10 5 29 9 42 9 14 0 28 5 31 10 3 6
17 10 30 10 13 0 27 5 30 10 3 6 14 10 25 10 16 0 52 15 124 52 199 103 346
265 421 468 9 25 21 54 25 65 5 11 13 49 20 85 6 36 16 87 21 113 5 26 9 80
10 120 1 138 56 218 170 248 42 11 51 10 93 -10 51 -24 76 -63 76 -121 0 -30
-24 -100 -34 -100 -3 0 -29 25 -59 55 -30 30 -61 55 -70 55 -21 0 -73 -65 -80
-99 -7 -35 23 -150 53 -203 6 -10 10 -22 10 -28 0 -6 21 -42 46 -80 46 -70
116 -140 141 -140 20 0 16 -141 -7 -235 -43 -171 -168 -365 -313 -483 -155
-127 -361 -244 -532 -303 -22 -8 -42 -16 -45 -19 -3 -3 -23 -11 -45 -18 -22
-7 -49 -17 -60 -21 -11 -5 -38 -13 -60 -19 -39 -10 -178 -55 -222 -73 -30 -12
-68 -27 -95 -38 -13 -5 -44 -19 -69 -30 -25 -12 -50 -21 -56 -21 -6 0 -28 -8
-50 -19 -21 -10 -69 -34 -108 -52 -106 -51 -245 -139 -288 -183 l-38 -40 -24
30 c-28 36 -166 129 -255 171 -104 50 -203 95 -225 103 -30 11 -78 31 -97 41
-10 5 -22 9 -28 9 -6 0 -29 9 -53 19 -23 11 -71 28 -107 40 -36 11 -85 27
-110 36 -25 9 -52 18 -60 20 -15 3 -84 28 -130 47 -14 6 -35 15 -47 19 -13 5
-34 14 -48 19 -14 6 -35 14 -47 19 -73 28 -263 131 -323 174 -286 207 -423
429 -450 730 -5 64 -4 68 18 76 49 19 187 182 187 221 0 6 4 18 10 28 28 49
61 170 54 197 -11 40 -38 84 -60 95 -28 16 -48 5 -104 -56 -40 -44 -44 -46
-56 -29 -31 43 -29 135 4 172 48 55 115 63 196 23z"/>
<path d="M743 1878 c-26 -13 -39 -46 -24 -61 7 -7 13 -3 20 16 14 36 88 52 97
22 5 -16 -139 -94 -153 -83 -7 5 -17 7 -23 3 -6 -4 5 -20 26 -41 37 -35 54
-42 54 -24 0 6 -4 10 -10 10 -20 0 -9 15 26 38 29 19 38 21 50 11 8 -7 13 -18
10 -26 -7 -17 14 -16 37 1 21 16 23 30 3 23 -8 -3 -20 1 -27 9 -13 16 -11 19
32 44 23 13 57 -23 40 -43 -6 -8 -8 -17 -5 -20 7 -7 54 13 54 23 0 8 -69 73
-100 94 -28 18 -74 20 -107 4z"/>
<path d="M860 1731 c0 -5 7 -11 16 -13 11 -2 2 -13 -30 -36 -60 -43 -59 -72 4
-72 13 0 17 -5 13 -20 -5 -18 0 -20 36 -20 23 0 41 5 41 11 0 6 -9 9 -20 6
-33 -9 -23 6 30 42 28 19 50 37 50 41 0 21 -33 16 -66 -11 -23 -18 -48 -29
-68 -29 l-31 0 30 24 c78 62 81 65 65 76 -19 12 -70 13 -70 1z"/>
<path d="M3353 1648 c-54 -30 -58 -37 -43 -73 9 -20 9 -19 15 2 7 20 52 59 60
51 2 -2 -3 -30 -11 -63 -17 -74 -18 -127 -2 -143 23 -23 29 -12 23 41 -6 45 5
143 21 200 7 22 -1 21 -63 -15z"/>
<path d="M990 1640 c0 -5 7 -10 16 -10 10 0 -3 -17 -33 -45 -39 -36 -45 -46
-33 -54 10 -7 24 -1 52 25 23 20 48 34 64 34 26 0 25 -2 -21 -44 -26 -25 -44
-49 -40 -55 8 -14 72 -14 80 -1 3 6 -4 10 -17 10 -20 1 -17 6 26 44 54 48 54
66 -1 66 -28 0 -33 3 -24 13 6 8 8 17 4 20 -10 11 -73 8 -73 -3z"/>
<path d="M1273 1566 c-21 -17 -36 -22 -60 -19 -22 4 -43 -2 -68 -17 -70 -43
-86 -107 -25 -98 23 4 29 1 28 -11 -2 -8 5 -17 15 -19 26 -5 69 7 62 18 -3 5
-12 7 -20 3 -28 -10 -14 12 49 82 62 67 65 69 89 56 30 -16 54 -6 36 15 -18
22 -74 17 -106 -10z m-53 -47 c0 -17 -57 -69 -74 -69 -29 0 -27 21 4 50 32 30
70 40 70 19z"/>
<path d="M3181 1554 c-25 -32 -26 -54 -6 -121 22 -75 74 -104 115 -63 39 39
20 158 -31 194 -33 23 -54 20 -78 -10z m84 -80 c17 -54 14 -104 -5 -104 -32 0
-82 149 -60 175 19 23 44 -4 65 -71z"/>
<path d="M2737 1531 c-34 -22 -43 -31 -31 -31 5 0 23 11 39 25 35 28 32 31 -8
6z"/>
<path d="M1796 1511 c9 -9 83 -27 74 -18 -3 3 -23 10 -44 16 -22 5 -35 6 -30
2z"/>
<path d="M3062 1503 c-18 -7 -42 -58 -42 -90 1 -41 34 -109 64 -128 24 -16 28
-16 50 -2 34 23 42 82 21 147 -21 63 -54 89 -93 73z m52 -75 c41 -82 30 -157
-16 -110 -21 21 -50 125 -41 148 10 27 32 13 57 -38z"/>
<path d="M1558 1484 c-15 -8 -32 -24 -38 -35 -8 -13 -17 -18 -30 -14 -23 7
-54 -7 -95 -45 -31 -28 -65 -45 -65 -32 0 4 20 30 45 59 l45 51 -50 7 c-60 8
-104 -12 -133 -63 -22 -38 -16 -52 24 -52 17 0 28 -4 25 -9 -8 -13 16 -20 46
-14 20 4 26 0 31 -17 5 -19 11 -22 36 -17 23 5 31 3 31 -8 0 -8 8 -15 18 -15
30 0 62 12 62 22 0 6 -9 8 -20 5 -11 -3 -20 -3 -20 -1 0 11 104 164 112 164 5
0 18 -4 28 -10 13 -7 21 -6 30 5 9 11 7 16 -9 24 -26 14 -40 13 -73 -5z m-204
-31 c10 -10 -55 -73 -76 -73 -26 0 -22 19 9 52 26 27 52 35 67 21z m136 -50
c0 -17 -53 -73 -71 -73 -26 0 -24 12 7 49 23 27 64 43 64 24z"/>
<path d="M2665 1490 c-3 -6 1 -7 9 -4 18 7 21 14 7 14 -6 0 -13 -4 -16 -10z"/>
<path d="M2900 1410 c-21 -21 -28 -70 -10 -70 6 0 10 6 10 13 0 7 6 22 14 32
12 16 16 17 30 6 21 -18 20 -49 -5 -132 -12 -39 -19 -72 -16 -75 3 -3 27 7 55
23 38 21 51 35 54 55 3 19 0 28 -9 28 -7 0 -13 -6 -13 -14 0 -14 -48 -51 -56
-43 -3 2 5 25 16 51 22 53 26 116 8 134 -18 18 -56 14 -78 -8z"/>
<path d="M1556 1348 c-25 -23 -38 -42 -39 -63 -2 -28 0 -30 31 -29 23 2 32 -2
32 -13 0 -11 6 -14 23 -9 12 3 30 6 40 6 9 0 17 7 17 15 0 13 -4 14 -20 5 -27
-15 -25 -8 15 56 19 30 35 57 35 59 0 3 -22 5 -48 5 -41 0 -55 -5 -86 -32z
m84 3 c0 -14 -65 -81 -79 -81 -19 0 -12 27 15 59 24 29 64 42 64 22z"/>
<path d="M2448 1354 c3 -15 -1 -29 -7 -34 -9 -5 -9 -9 3 -13 13 -5 16 1 16 28
0 18 -4 36 -9 39 -4 3 -6 -6 -3 -20z"/>
<path d="M2383 1323 c9 -2 23 -2 30 0 6 3 -1 5 -18 5 -16 0 -22 -2 -12 -5z"/>
<path d="M1635 1190 c-28 -7 -28 -8 -5 -9 14 0 32 4 40 9 17 11 8 11 -35 0z"/>
<path d="M2312 1170 c-26 -16 -32 -17 -32 -5 0 23 -56 19 -79 -7 -43 -46 -52
-138 -13 -138 22 0 82 37 82 50 0 14 -11 12 -34 -5 -26 -20 -36 -19 -36 3 0
11 14 25 35 35 19 9 35 22 35 28 0 6 6 9 14 6 8 -3 17 -1 19 6 2 7 7 10 10 7
4 -3 0 -30 -8 -60 -19 -70 -19 -70 4 -70 14 0 20 10 25 41 7 46 32 89 51 89
10 0 10 -10 -2 -49 -16 -47 -13 -81 5 -81 18 0 62 42 56 52 -5 7 -12 4 -20 -7
-22 -30 -25 -13 -7 42 25 78 4 100 -51 54 -18 -15 -19 -15 -13 1 9 26 -6 29
-41 8z m-62 -18 c0 -14 -39 -46 -47 -39 -3 4 2 16 12 27 19 21 35 26 35 12z"/>
<path d="M2778 1043 c7 -3 16 -2 19 1 4 3 -2 6 -13 5 -11 0 -14 -3 -6 -6z"/>
<path d="M2364 828 l-19 -23 25 20 c14 11 27 21 29 22 2 2 0 3 -6 3 -5 0 -18
-10 -29 -22z"/>
<path d="M3297 2893 c-17 -16 -5 -65 24 -98 38 -43 65 -33 30 11 -26 33 -27
44 -2 44 11 0 28 -15 41 -35 25 -41 53 -59 79 -50 45 14 30 73 -28 112 -25 17
-48 23 -86 23 -28 0 -55 -3 -58 -7z m144 -53 c10 -6 19 -15 19 -20 0 -17 -26
-11 -45 10 -20 22 -7 27 26 10z"/>
<path d="M1884 2676 c-52 -24 -122 -91 -170 -162 -15 -21 -30 -40 -35 -42 -5
-2 -9 -8 -9 -13 0 -4 7 -6 15 -3 8 4 15 12 15 20 0 7 14 21 30 31 17 9 30 22
30 28 0 6 14 21 30 34 17 12 28 26 25 30 -6 11 46 46 64 43 8 -2 10 1 5 10 -6
10 -5 11 7 1 13 -10 19 -10 35 2 19 14 19 14 -1 15 -18 1 -17 2 5 15 40 23 10
17 -46 -9z"/>
<path d="M183 2668 c-12 -15 -49 -88 -88 -171 -28 -61 -35 -118 -16 -141 6 -7
8 -16 4 -19 -3 -4 0 -7 8 -7 8 0 22 -8 31 -19 18 -21 85 -21 128 1 37 19 82
74 111 135 14 29 27 52 30 49 2 -2 4 8 4 23 0 34 -21 61 -47 61 -27 0 -50 14
-98 60 -45 43 -53 46 -67 28z m52 -52 c39 -39 88 -66 122 -66 12 0 23 -2 23
-5 0 -16 -80 -154 -105 -179 -40 -41 -89 -59 -118 -43 -63 35 -83 79 -57 125
13 24 76 163 83 185 9 23 13 22 52 -17z"/>
<path d="M4262 2650 c-9 -16 -23 -30 -29 -30 -7 0 -13 -3 -13 -7 0 -11 -50
-33 -76 -33 -34 0 -54 -69 -27 -92 7 -6 13 -15 13 -20 0 -17 73 -123 98 -142
53 -40 125 -39 169 4 43 42 47 74 16 143 -15 32 -26 65 -26 73 0 8 -4 14 -7
14 -4 0 -17 22 -29 50 -18 43 -44 70 -66 70 -3 0 -14 -13 -23 -30z m56 -14
c-2 -9 52 -133 82 -188 26 -46 6 -90 -57 -125 -29 -16 -78 2 -118 43 -25 25
-105 163 -105 179 0 3 11 5 25 5 35 0 107 42 130 77 19 28 48 35 43 9z"/>
<path d="M1839 2613 c-11 -3 -15 -12 -11 -30 3 -16 -1 -30 -9 -37 -21 -16 -52
-67 -45 -74 7 -6 4 -9 45 51 18 26 29 52 26 58 -4 5 -1 16 5 24 7 8 11 14 9
14 -2 -1 -11 -3 -20 -6z"/>
<path d="M1921 2564 c0 -11 3 -14 6 -6 3 7 2 16 -1 19 -3 4 -6 -2 -5 -13z"/>
<path d="M1942 2524 c-30 -31 -32 -34 -13 -34 24 0 61 33 61 55 0 21 -10 17
-48 -21z"/>
<path d="M2870 2550 c-13 -9 -13 -10 0 -10 8 0 22 5 30 10 13 9 13 10 0 10 -8
0 -22 -5 -30 -10z"/>
<path d="M2796 2525 c-10 -7 -15 -18 -11 -24 3 -6 -2 -11 -13 -11 -31 0 -40
-21 -33 -75 8 -55 21 -84 47 -106 16 -13 16 -12 2 16 -20 40 -29 91 -22 121 5
18 13 24 35 24 36 0 57 33 35 55 -17 18 -16 18 -40 0z m32 -17 c-6 -18 -28
-21 -28 -4 0 9 7 16 16 16 9 0 14 -5 12 -12z"/>
<path d="M2875 2520 c-3 -5 -1 -10 4 -10 6 0 11 5 11 10 0 6 -2 10 -4 10 -3 0
-8 -4 -11 -10z"/>
<path d="M1840 2500 c-6 -11 -8 -20 -4 -20 4 0 -2 -10 -13 -22 -26 -29 -37
-69 -17 -61 8 3 14 9 14 14 0 5 7 9 15 9 17 0 17 0 20 58 2 47 0 50 -15 22z"/>
<path d="M1727 2483 c-12 -12 -7 -33 8 -33 17 0 19 9 7 28 -5 7 -11 9 -15 5z"/>
<path d="M2830 2442 c0 -12 93 -98 112 -105 10 -4 28 -2 40 3 22 8 22 9 -5 9
-15 1 -35 10 -45 22 -9 11 -24 29 -33 39 -17 21 -69 44 -69 32z"/>
<path d="M1735 2362 c-3 -18 -4 -40 -1 -50 3 -10 -1 -27 -9 -38 -8 -10 -14
-30 -15 -44 0 -22 4 -19 25 19 25 43 33 104 16 130 -7 10 -11 5 -16 -17z"/>
<path d="M1504 2355 c11 -8 29 -15 40 -15 19 1 20 1 3 11 -9 6 -27 12 -40 14
-21 4 -21 4 -3 -10z"/>
<path d="M1441 2254 c-13 -13 -18 -24 -13 -24 6 0 -2 -13 -18 -28 -30 -31 -58
-108 -66 -182 l-4 -45 15 50 c8 28 20 71 26 98 6 26 15 47 20 47 5 0 9 6 9 14
0 8 6 16 14 19 13 5 50 67 43 73 -1 1 -13 -8 -26 -22z"/>
<path d="M2033 2248 c1 -6 15 -24 30 -39 19 -18 26 -33 21 -41 -6 -10 -3 -9 9
1 15 12 17 12 11 -3 -4 -11 -1 -16 10 -16 10 0 52 -18 95 -40 43 -22 83 -40
89 -40 7 0 12 -4 12 -10 0 -13 -13 -13 -28 2 -8 8 -15 8 -27 -2 -26 -21 -17
-25 49 -22 53 3 72 -1 112 -22 31 -17 64 -26 89 -25 l40 1 -54 15 c-30 8 -67
23 -82 34 -15 10 -32 19 -38 19 -24 0 -131 51 -189 90 -34 22 -68 40 -77 40
-8 0 -15 3 -15 8 0 9 -45 62 -54 62 -3 0 -5 -5 -3 -12z"/>
<path d="M1490 2230 c0 -5 7 -7 15 -4 8 4 15 8 15 10 0 2 -7 4 -15 4 -8 0 -15
-4 -15 -10z"/>
<path d="M1358 2213 c-10 -2 -18 -9 -18 -14 0 -14 16 -11 30 6 7 8 11 14 9 14
-2 -1 -12 -3 -21 -6z"/>
<path d="M1305 2178 c-11 -6 -29 -20 -39 -30 -20 -18 -20 -18 0 -17 10 0 29
13 42 30 26 32 26 33 -3 17z"/>
<path d="M2671 2100 c-29 -33 -57 -57 -62 -54 -5 3 -8 -12 -8 -33 1 -21 3 -29
6 -18 3 11 20 35 39 52 19 18 34 37 34 43 0 5 4 10 10 10 5 0 16 14 25 30 9
17 14 30 12 30 -2 0 -27 -27 -56 -60z"/>
<path d="M2097 2104 c3 -8 8 -13 11 -10 2 3 14 -1 26 -9 11 -8 24 -15 29 -15
18 0 -14 29 -43 38 -24 9 -28 8 -23 -4z"/>
<path d="M2315 2110 c-4 -6 6 -10 22 -10 22 0 25 2 13 10 -19 12 -27 12 -35 0z"/>
<path d="M2206 2075 c4 -8 10 -12 15 -9 11 6 2 24 -11 24 -5 0 -7 -7 -4 -15z"/>
<path d="M2081 2054 c0 -11 3 -14 6 -6 3 7 2 16 -1 19 -3 4 -6 -2 -5 -13z"/>
<path d="M2176 2046 c3 -9 13 -16 22 -16 8 0 13 1 11 3 -2 1 -12 9 -22 16 -15
12 -17 12 -11 -3z"/>
<path d="M2464 2042 c3 -5 17 -12 32 -15 30 -5 20 8 -15 18 -15 4 -21 3 -17
-3z"/>
<path d="M1727 1961 c-10 -19 -15 -36 -13 -38 8 -8 38 46 34 59 -3 7 -12 -3
-21 -21z"/>
<path d="M2200 1936 c0 -2 7 -9 15 -16 13 -11 14 -10 9 4 -5 14 -24 23 -24 12z"/>
<path d="M1920 1895 c0 -8 2 -15 4 -15 2 0 6 7 10 15 3 8 1 15 -4 15 -6 0 -10
-7 -10 -15z"/>
<path d="M2430 1899 c0 -5 9 -9 20 -9 11 0 20 2 20 4 0 2 -9 6 -20 9 -11 3
-20 1 -20 -4z"/>
<path d="M1666 1874 c-10 -14 -15 -33 -13 -42 4 -15 5 -15 6 1 0 9 6 17 12 17
5 0 8 4 4 9 -3 5 2 17 11 25 8 9 11 16 6 16 -5 0 -17 -12 -26 -26z"/>
<path d="M1556 1873 c-6 -14 -5 -15 5 -6 7 7 10 15 7 18 -3 3 -9 -2 -12 -12z"/>
<path d="M1961 1874 c0 -11 3 -14 6 -6 3 7 2 16 -1 19 -3 4 -6 -2 -5 -13z"/>
<path d="M2416 1798 c-7 -36 -4 -58 10 -58 13 0 13 17 0 38 -4 7 -2 19 4 27 9
10 9 15 1 15 -6 0 -13 -10 -15 -22z"/>
<path d="M2420 1640 c0 -5 5 -10 10 -10 6 0 10 5 10 10 0 6 -4 10 -10 10 -5 0
-10 -4 -10 -10z"/>
<path d="M2395 1620 c-3 -5 -1 -10 4 -10 6 0 11 5 11 10 0 6 -2 10 -4 10 -3 0
-8 -4 -11 -10z"/>
<path d="M2310 1569 c0 -5 5 -7 10 -4 6 3 10 8 10 11 0 2 -4 4 -10 4 -5 0 -10
-5 -10 -11z"/>
<path d="M2040 1551 c0 -7 -5 -9 -11 -5 -8 4 -9 -1 -4 -17 11 -35 26 -51 43
-44 8 3 21 0 30 -7 13 -11 14 -10 10 2 -2 8 -19 16 -36 18 -34 3 -42 16 -16
26 26 10 74 -21 74 -48 0 -13 7 -26 15 -30 18 -6 18 -7 4 33 -6 17 -16 31 -21
31 -6 0 -5 6 2 15 11 13 10 14 -4 9 -10 -4 -25 1 -36 11 -14 12 -20 14 -20 5
0 -10 -3 -10 -15 0 -11 9 -15 9 -15 1z"/>
<path d="M2230 1495 c0 -8 4 -15 10 -15 5 0 7 7 4 15 -4 8 -8 15 -10 15 -2 0
-4 -7 -4 -15z"/>
</g>
</svg>
