<?xml version="1.0" encoding="iso-8859-1"?>
<!-- Generator: Adobe Illustrator 18.0.0, SVG Export Plug-In . SVG Version: 6.00 Build 0)  -->
<!DOCTYPE svg PUBLIC "-//W3C//DTD SVG 1.1//EN" "http://www.w3.org/Graphics/SVG/1.1/DTD/svg11.dtd">
<svg version="1.1" width="24" height="24" fill="rgba(10, 197, 253, 1)" id="Capa_1" xmlns="http://www.w3.org/2000/svg" xmlns:xlink="http://www.w3.org/1999/xlink" x="0px" y="0px"
	 viewBox="0 0 299.148 299.148" style="enable-background:new 0 0 299.148 299.148;" xml:space="preserve">
<path d="M225.254,174.314c-0.124-0.481-12.498-48.213-16.482-64.047c-6.391-25.396-21.71-39.963-42.028-39.963h-7.103
	c14.857-4.369,25.739-18.144,25.739-34.426C185.379,16.095,169.317,0,149.574,0c-19.743,0-35.805,16.095-35.805,35.878
	c0,16.282,10.882,30.057,25.739,34.426h-6.434c-20.206,0-35.75,14.496-42.648,39.771c-4.333,15.879-16.052,62.334-16.549,64.304
	c-0.754,2.989-0.087,6.159,1.808,8.591c1.896,2.433,4.806,3.854,7.889,3.854H95.14l-10.254,41.433
	c-0.739,2.985-0.063,6.145,1.832,8.565c1.896,2.422,4.8,3.837,7.875,3.837h8.539v48.49c0,5.522,4.477,10,10,10h72.883
	c5.523,0,10-4.478,10-10v-48.49h8.539c3.108,0,6.04-1.445,7.933-3.911c1.893-2.466,2.531-5.672,1.727-8.675l-11.041-41.249h12.401
	c3.095,0,6.015-1.433,7.909-3.88C225.377,180.495,226.031,177.31,225.254,174.314z M133.769,35.878
	c0-8.755,7.09-15.878,15.805-15.878c8.715,0,15.805,7.123,15.805,15.878c0,8.756-7.09,15.879-15.805,15.879
	C140.859,51.757,133.769,44.634,133.769,35.878z M123.133,240.658h16.441v38.49h-16.441V240.658z M176.016,279.148h-16.441v-38.49
	h16.441V279.148z M187.715,129.072c-1.428-5.335-6.908-8.501-12.246-7.074c-5.335,1.429-8.502,6.911-7.074,12.246l23.131,86.414
	H107.37l21.431-86.598c1.327-5.361-1.943-10.783-7.305-12.109c-5.356-1.328-10.782,1.944-12.109,7.305l-9.297,37.567h-3.669
	c3.903-15.383,10.393-40.827,13.301-51.483c3.116-11.422,9.698-25.036,23.353-25.036h33.669c13.539,0,19.781,13.51,22.634,24.844
	c2.714,10.788,9.291,36.26,13.278,51.676h-4.835L187.715,129.072z"/>
<g>
</g>
<g>
</g>
<g>
</g>
<g>
</g>
<g>
</g>
<g>
</g>
<g>
</g>
<g>
</g>
<g>
</g>
<g>
</g>
<g>
</g>
<g>
</g>
<g>
</g>
<g>
</g>
<g>
</g>
</svg>
